<?xml version="1.0" encoding="UTF-8"?>
<!DOCTYPE svg PUBLIC "-//W3C//DTD SVG 1.1//EN" "http://www.w3.org/Graphics/SVG/1.1/DTD/svg11.dtd">
<svg xmlns="http://www.w3.org/2000/svg" version="1.1" width="119px" height="104px" style="shape-rendering:geometricPrecision; text-rendering:geometricPrecision; image-rendering:optimizeQuality; fill-rule:evenodd; clip-rule:evenodd" xmlns:xlink="http://www.w3.org/1999/xlink">
<g><path style="opacity:1" fill="#fdfefd" d="M -0.5,-0.5 C 39.1667,-0.5 78.8333,-0.5 118.5,-0.5C 118.5,34.1667 118.5,68.8333 118.5,103.5C 78.8333,103.5 39.1667,103.5 -0.5,103.5C -0.5,68.8333 -0.5,34.1667 -0.5,-0.5 Z"/></g>
<g><path style="opacity:1" fill="#d3f0f9" d="M 72.5,10.5 C 70.5,10.5 68.5,10.5 66.5,10.5C 66.5,12.1667 66.5,13.8333 66.5,15.5C 67.8333,15.5 69.1667,15.5 70.5,15.5C 72.099,15.2322 73.4324,15.5655 74.5,16.5C 71.4281,16.8174 68.4281,16.4841 65.5,15.5C 64.6518,13.5914 64.3184,11.5914 64.5,9.5C 67.3854,9.1936 70.0521,9.52693 72.5,10.5 Z"/></g>
<g><path style="opacity:1" fill="#75b6d5" d="M 72.5,10.5 C 74.5,11.5 76.5,12.5 78.5,13.5C 75.1589,12.9947 71.8255,12.8281 68.5,13C 69.3805,13.7083 70.0472,14.5416 70.5,15.5C 69.1667,15.5 67.8333,15.5 66.5,15.5C 66.5,13.8333 66.5,12.1667 66.5,10.5C 68.5,10.5 70.5,10.5 72.5,10.5 Z"/></g>
<g><path style="opacity:1" fill="#bde1f2" d="M 72.5,10.5 C 76.6189,11.0966 80.6189,12.0966 84.5,13.5C 84.5,13.8333 84.5,14.1667 84.5,14.5C 82.5648,13.8505 80.5648,13.5172 78.5,13.5C 76.5,12.5 74.5,11.5 72.5,10.5 Z"/></g>
<g><path style="opacity:1" fill="#fcfaec" d="M 57.5,14.5 C 57.1583,15.3382 56.4916,15.6716 55.5,15.5C 55.5,13.8333 55.5,12.1667 55.5,10.5C 52.9407,10.1984 50.6074,10.5318 48.5,11.5C 47.8333,11.5 47.1667,11.5 46.5,11.5C 43.6067,11.0311 41.6067,12.0311 40.5,14.5C 39.8333,14.5 39.1667,14.5 38.5,14.5C 36.8333,14.5 35.1667,14.5 33.5,14.5C 33.7148,16.1788 33.0481,17.1788 31.5,17.5C 31.5,16.5 31.5,15.5 31.5,14.5C 28.0123,14.1009 27.8456,13.4342 31,12.5C 33.5486,13.5188 36.0486,13.5188 38.5,12.5C 37.624,11.7492 36.624,11.2492 35.5,11C 36.4162,10.6258 37.2496,10.1258 38,9.5C 41.7602,10.3575 45.5935,10.3575 49.5,9.5C 49.5,8.5 49.5,7.5 49.5,6.5C 53.1419,7.0804 56.8086,7.5804 60.5,8C 61.4506,8.71752 61.6172,9.55085 61,10.5C 59.9887,9.66337 58.8221,9.33003 57.5,9.5C 57.5,11.1667 57.5,12.8333 57.5,14.5 Z"/></g>
<g><path style="opacity:1" fill="#f8e394" d="M 46.5,11.5 C 45.8333,12.1667 45.1667,12.8333 44.5,13.5C 43.1667,13.8333 41.8333,14.1667 40.5,14.5C 41.6067,12.0311 43.6067,11.0311 46.5,11.5 Z"/></g>
<g><path style="opacity:1" fill="#eac752" d="M 46.5,11.5 C 47.1667,11.5 47.8333,11.5 48.5,11.5C 50.5,11.5 52.5,11.5 54.5,11.5C 54.5,12.8333 54.5,14.1667 54.5,15.5C 54.1667,15.5 53.8333,15.5 53.5,15.5C 52.8333,15.5 52.1667,15.5 51.5,15.5C 53.1368,13.8763 52.8034,12.8763 50.5,12.5C 48.5466,13.1556 46.5466,13.4889 44.5,13.5C 45.1667,12.8333 45.8333,12.1667 46.5,11.5 Z"/></g>
<g><path style="opacity:1" fill="#f2dd93" d="M 48.5,11.5 C 50.6074,10.5318 52.9407,10.1984 55.5,10.5C 55.5,12.1667 55.5,13.8333 55.5,15.5C 55.1667,15.5 54.8333,15.5 54.5,15.5C 54.5,14.1667 54.5,12.8333 54.5,11.5C 52.5,11.5 50.5,11.5 48.5,11.5 Z"/></g>
<g><path style="opacity:1" fill="#fdf0c2" d="M 38.5,14.5 C 36.6597,16.6689 34.3263,18.0023 31.5,18.5C 31.5,18.1667 31.5,17.8333 31.5,17.5C 33.0481,17.1788 33.7148,16.1788 33.5,14.5C 35.1667,14.5 36.8333,14.5 38.5,14.5 Z"/></g>
<g><path style="opacity:1" fill="#fbe7a7" d="M 51.5,15.5 C 52.1667,15.5 52.8333,15.5 53.5,15.5C 52.1667,16.1667 50.8333,16.8333 49.5,17.5C 45.1667,18.8333 40.8333,20.1667 36.5,21.5C 36.9528,20.5416 37.6195,19.7083 38.5,19C 42.856,17.8162 47.1893,16.6495 51.5,15.5 Z"/></g>
<g><path style="opacity:1" fill="#63add6" d="M 78.5,13.5 C 80.5648,13.5172 82.5648,13.8505 84.5,14.5C 85.2905,15.4013 86.2905,16.0679 87.5,16.5C 89.5016,18.4818 91.8349,20.1484 94.5,21.5C 96.8333,23.5 99.1667,25.5 101.5,27.5C 103.604,29.3718 104.937,31.7052 105.5,34.5C 108.028,38.4195 109.361,42.7528 109.5,47.5C 108.167,47.5 106.833,47.5 105.5,47.5C 104.494,41.8246 102.161,36.8246 98.5,32.5C 97.5806,29.9108 95.914,27.9108 93.5,26.5C 91.7499,25.2583 90.0832,23.7583 88.5,22C 85.495,21.467 82.8283,20.3004 80.5,18.5C 79.3646,16.7868 77.698,16.1201 75.5,16.5C 75.1667,16.5 74.8333,16.5 74.5,16.5C 73.4324,15.5655 72.099,15.2322 70.5,15.5C 70.0472,14.5416 69.3805,13.7083 68.5,13C 71.8255,12.8281 75.1589,12.9947 78.5,13.5 Z"/></g>
<g><path style="opacity:1" fill="#add8f3" d="M 75.5,16.5 C 77.698,16.1201 79.3646,16.7868 80.5,18.5C 78.302,18.8799 76.6354,18.2132 75.5,16.5 Z"/></g>
<g><path style="opacity:1" fill="#e9c038" d="M 51.5,15.5 C 47.1893,16.6495 42.856,17.8162 38.5,19C 37.6195,19.7083 36.9528,20.5416 36.5,21.5C 33.9066,22.7536 31.5732,24.4202 29.5,26.5C 28.6236,26.6309 27.9569,26.2975 27.5,25.5C 28.6302,24.3777 29.2969,23.0443 29.5,21.5C 30.1667,20.5 30.8333,19.5 31.5,18.5C 34.3263,18.0023 36.6597,16.6689 38.5,14.5C 39.1667,14.5 39.8333,14.5 40.5,14.5C 41.8333,14.1667 43.1667,13.8333 44.5,13.5C 46.5466,13.4889 48.5466,13.1556 50.5,12.5C 52.8034,12.8763 53.1368,13.8763 51.5,15.5 Z"/></g>
<g><path style="opacity:1" fill="#9ecee7" d="M 87.5,16.5 C 89.2838,16.8925 90.9505,17.5592 92.5,18.5C 93.1667,19.5 93.8333,20.5 94.5,21.5C 91.8349,20.1484 89.5016,18.4818 87.5,16.5 Z"/></g>
<g><path style="opacity:1" fill="#cdebf7" d="M 92.5,18.5 C 96.5,20.5 99.5,23.5 101.5,27.5C 99.1667,25.5 96.8333,23.5 94.5,21.5C 93.8333,20.5 93.1667,19.5 92.5,18.5 Z"/></g>
<g><path style="opacity:1" fill="#fbfcf3" d="M 49.5,17.5 C 48.4019,18.397 48.4019,19.2303 49.5,20C 52.578,19.9345 55.578,20.1012 58.5,20.5C 53.9953,21.7492 49.4953,21.7492 45,20.5C 43.3421,22.2733 42.1755,24.2733 41.5,26.5C 40.6086,27.5896 39.6086,27.5896 38.5,26.5C 37.6376,27.7658 36.9709,29.0992 36.5,30.5C 33.8333,30.5 31.1667,30.5 28.5,30.5C 31.1667,27.5 33.8333,24.5 36.5,21.5C 40.8333,20.1667 45.1667,18.8333 49.5,17.5 Z"/></g>
<g><path style="opacity:1" fill="#f9e6a1" d="M 31.5,18.5 C 30.8333,19.5 30.1667,20.5 29.5,21.5C 27.8333,22.8333 26.1667,24.1667 24.5,25.5C 24.5,25.1667 24.5,24.8333 24.5,24.5C 26.2393,21.7573 28.5726,19.7573 31.5,18.5 Z"/></g>
<g><path style="opacity:1" fill="#ebc752" d="M 29.5,21.5 C 29.2969,23.0443 28.6302,24.3777 27.5,25.5C 27.9569,26.2975 28.6236,26.6309 29.5,26.5C 28.8333,27.8333 27.8333,28.8333 26.5,29.5C 26.719,28.325 26.3857,27.325 25.5,26.5C 23.4782,28.6092 21.4782,30.6092 19.5,32.5C 20.4333,29.6298 22.1,27.2964 24.5,25.5C 26.1667,24.1667 27.8333,22.8333 29.5,21.5 Z"/></g>
<g><path style="opacity:1" fill="#f7e2a2" d="M 36.5,21.5 C 33.8333,24.5 31.1667,27.5 28.5,30.5C 28.1667,30.5 27.8333,30.5 27.5,30.5C 26.6618,30.8417 26.3284,31.5084 26.5,32.5C 25.8333,32.5 25.1667,32.5 24.5,32.5C 24.9321,31.2905 25.5987,30.2905 26.5,29.5C 27.8333,28.8333 28.8333,27.8333 29.5,26.5C 31.5732,24.4202 33.9066,22.7536 36.5,21.5 Z"/></g>
<g><path style="opacity:1" fill="#afdcef" d="M 93.5,26.5 C 95.914,27.9108 97.5806,29.9108 98.5,32.5C 96.086,31.0892 94.4194,29.0892 93.5,26.5 Z"/></g>
<g><path style="opacity:1" fill="#e7be2f" d="M 26.5,29.5 C 25.5987,30.2905 24.9321,31.2905 24.5,32.5C 23.0937,32.9731 22.427,33.9731 22.5,35.5C 21.7784,35.0825 21.2784,34.4158 21,33.5C 19.8932,34.7119 19.3932,34.3786 19.5,32.5C 21.4782,30.6092 23.4782,28.6092 25.5,26.5C 26.3857,27.325 26.719,28.325 26.5,29.5 Z"/></g>
<g><path style="opacity:1" fill="#fdf2c6" d="M 24.5,24.5 C 24.5,24.8333 24.5,25.1667 24.5,25.5C 22.1,27.2964 20.4333,29.6298 19.5,32.5C 18.8333,32.8333 18.1667,33.1667 17.5,33.5C 18.3882,30.757 19.5549,28.0904 21,25.5C 22.0113,24.6634 23.1779,24.33 24.5,24.5 Z"/></g>
<g><path style="opacity:1" fill="#dbdcde" d="M 27.5,30.5 C 27.8333,30.5 28.1667,30.5 28.5,30.5C 31.1667,30.5 33.8333,30.5 36.5,30.5C 38.5,30.5 39.5,31.5 39.5,33.5C 37.8583,31.9192 35.8583,31.2525 33.5,31.5C 31.2646,31.7947 29.2646,31.4614 27.5,30.5 Z"/></g>
<g><path style="opacity:1" fill="#b2b3ab" d="M 27.5,30.5 C 29.2646,31.4614 31.2646,31.7947 33.5,31.5C 33.5,31.8333 33.5,32.1667 33.5,32.5C 32.1667,32.5 30.8333,32.5 29.5,32.5C 29.5,33.8333 29.5,35.1667 29.5,36.5C 28.8333,36.1667 28.1667,35.8333 27.5,35.5C 27.4431,34.391 27.1098,33.391 26.5,32.5C 26.3284,31.5084 26.6618,30.8417 27.5,30.5 Z"/></g>
<g><path style="opacity:1" fill="#eec952" d="M 19.5,32.5 C 19.3932,34.3786 19.8932,34.7119 21,33.5C 21.2784,34.4158 21.7784,35.0825 22.5,35.5C 22.5,36.1667 22.5,36.8333 22.5,37.5C 21.8571,39.0764 20.8571,40.4097 19.5,41.5C 21.3309,34.6352 20.3309,33.9685 16.5,39.5C 16.5,38.8333 16.5,38.1667 16.5,37.5C 16.8333,36.1667 17.1667,34.8333 17.5,33.5C 18.1667,33.1667 18.8333,32.8333 19.5,32.5 Z"/></g>
<g><path style="opacity:1" fill="#f3d577" d="M 24.5,32.5 C 24.573,34.0269 23.9063,35.0269 22.5,35.5C 22.427,33.9731 23.0937,32.9731 24.5,32.5 Z"/></g>
<g><path style="opacity:1" fill="#f9fbfb" d="M 84.5,13.5 C 80.6189,12.0966 76.6189,11.0966 72.5,10.5C 70.0521,9.52693 67.3854,9.1936 64.5,9.5C 64.3184,11.5914 64.6518,13.5914 65.5,15.5C 68.4281,16.4841 71.4281,16.8174 74.5,16.5C 74.8333,16.5 75.1667,16.5 75.5,16.5C 76.6354,18.2132 78.302,18.8799 80.5,18.5C 82.8283,20.3004 85.495,21.467 88.5,22C 90.0832,23.7583 91.7499,25.2583 93.5,26.5C 94.4194,29.0892 96.086,31.0892 98.5,32.5C 100.759,38.0301 102.759,43.6968 104.5,49.5C 106.781,49.9227 108.448,49.256 109.5,47.5C 110.461,45.7354 110.795,43.7354 110.5,41.5C 111.479,44.6248 111.813,47.9581 111.5,51.5C 107.44,50.8482 105.44,52.5149 105.5,56.5C 107.415,56.2155 109.081,56.5489 110.5,57.5C 108.585,57.2155 106.919,57.5489 105.5,58.5C 103.715,64.3211 101.381,69.9878 98.5,75.5C 94.5201,79.1447 90.5201,82.8114 86.5,86.5C 85.8333,86.5 85.1667,86.5 84.5,86.5C 80.7934,87.5778 77.46,89.2444 74.5,91.5C 71.5049,91.2938 68.8383,91.9605 66.5,93.5C 66.5,94.8333 66.5,96.1667 66.5,97.5C 68.4147,97.7845 70.0813,97.4511 71.5,96.5C 72.8333,96.5 74.1667,96.5 75.5,96.5C 76.8333,96.5 78.1667,96.5 79.5,96.5C 76.9439,98.4447 73.9439,99.4447 70.5,99.5C 66.6799,98.8632 63.0132,98.8632 59.5,99.5C 59.1667,94.1667 58.8333,94.1667 58.5,99.5C 54.4649,99.6073 50.4649,99.2739 46.5,98.5C 44.3074,98.2295 42.6407,97.2295 41.5,95.5C 43.8056,95.9926 46.139,96.3259 48.5,96.5C 50.6074,97.4682 52.9407,97.8016 55.5,97.5C 55.7845,95.5853 55.4511,93.9187 54.5,92.5C 53.5,92.5 52.5,92.5 51.5,92.5C 46.8314,89.7205 41.8314,87.7205 36.5,86.5C 35.0552,84.9373 33.3885,83.604 31.5,82.5C 30.1667,80.5 28.5,78.8333 26.5,77.5C 25.1796,72.1921 22.8462,67.5255 19.5,63.5C 19.8333,59.1667 17.8333,57.1667 13.5,57.5C 12.4138,57.38 11.7472,56.7133 11.5,55.5C 12.2692,52.8853 12.6025,50.2186 12.5,47.5C 14.5832,49.6044 16.9165,49.9377 19.5,48.5C 21.1482,46.5707 22.8149,44.5707 24.5,42.5C 23.5721,41.2322 23.4054,39.8989 24,38.5C 24.3333,38.8333 24.6667,39.1667 25,39.5C 25.9344,38.1416 26.7677,36.8083 27.5,35.5C 28.1667,35.8333 28.8333,36.1667 29.5,36.5C 33.1964,40.8701 36.5297,45.5367 39.5,50.5C 41.6121,53.0602 43.9454,55.3936 46.5,57.5C 46.5,58.1667 46.8333,58.5 47.5,58.5C 47.3338,64.5092 47.5005,70.5092 48,76.5C 48.6708,77.2524 49.5041,77.5858 50.5,77.5C 50.6107,78.1174 50.944,78.6174 51.5,79C 54.367,79.8007 57.0336,79.6341 59.5,78.5C 60.1614,77.2825 60.8281,75.9492 61.5,74.5C 62.1818,75.2427 62.8485,75.9094 63.5,76.5C 64.1667,76.8333 64.8333,77.1667 65.5,77.5C 66.1522,78.7251 67.3189,79.3917 69,79.5C 70.3847,79.4857 71.5514,79.1524 72.5,78.5C 73.4822,77.8592 74.4822,77.1925 75.5,76.5C 76.4168,77.1272 77.4168,77.4606 78.5,77.5C 78.6107,78.1174 78.944,78.6174 79.5,79C 82.367,79.8007 85.0336,79.6341 87.5,78.5C 88.1174,78.3893 88.6174,78.056 89,77.5C 89.6667,68.8333 89.6667,60.1667 89,51.5C 87.6439,50.6198 86.1439,50.2865 84.5,50.5C 79.3589,48.3482 75.1922,49.6816 72,54.5C 71,56.5 70,58.5 69,60.5C 68.1841,61.8228 67.0174,62.4894 65.5,62.5C 63.2208,59.5851 61.2208,56.5851 59.5,53.5C 64.5607,48.7712 68.894,43.4378 72.5,37.5C 72.5,37.1667 72.5,36.8333 72.5,36.5C 73.5983,35.3991 73.765,34.0657 73,32.5C 72.3292,31.7476 71.4959,31.4142 70.5,31.5C 66.7016,30.5166 62.7016,30.1832 58.5,30.5C 56.304,36.3582 52.6373,41.0248 47.5,44.5C 44.8333,40.8333 42.1667,37.1667 39.5,33.5C 39.5,31.5 38.5,30.5 36.5,30.5C 36.9709,29.0992 37.6376,27.7658 38.5,26.5C 39.6086,27.5896 40.6086,27.5896 41.5,26.5C 42.1755,24.2733 43.3421,22.2733 45,20.5C 49.4953,21.7492 53.9953,21.7492 58.5,20.5C 55.578,20.1012 52.578,19.9345 49.5,20C 48.4019,19.2303 48.4019,18.397 49.5,17.5C 50.8333,16.8333 52.1667,16.1667 53.5,15.5C 53.8333,15.5 54.1667,15.5 54.5,15.5C 54.8333,15.5 55.1667,15.5 55.5,15.5C 56.4916,15.6716 57.1583,15.3382 57.5,14.5C 59.0902,12.576 60.9235,12.2427 63,13.5C 62.6948,11.5568 62.6948,9.55676 63,7.5C 63.414,7.95735 63.914,8.29069 64.5,8.5C 66.5728,7.5313 68.7395,6.86463 71,6.5C 76.3443,10.1655 82.1777,11.6655 88.5,11C 86.563,11.1216 85.2297,11.955 84.5,13.5 Z"/></g>
<g><path style="opacity:1" fill="#4c5967" d="M 72.5,36.5 C 72.5,36.8333 72.5,37.1667 72.5,37.5C 72.1667,37.5 71.8333,37.5 71.5,37.5C 71.719,36.325 71.3857,35.325 70.5,34.5C 68.6396,35.2599 66.973,36.2599 65.5,37.5C 65.5569,36.391 65.8902,35.391 66.5,34.5C 67.7564,34.0962 68.9231,33.4295 70,32.5C 72.0197,33.0319 72.853,34.3652 72.5,36.5 Z"/></g>
<g><path style="opacity:1" fill="#a1aab1" d="M 70.5,31.5 C 71.4959,31.4142 72.3292,31.7476 73,32.5C 73.765,34.0657 73.5983,35.3991 72.5,36.5C 72.853,34.3652 72.0197,33.0319 70,32.5C 68.9231,33.4295 67.7564,34.0962 66.5,34.5C 65.0512,32.8356 63.0512,32.0023 60.5,32C 63.8168,31.5017 67.1501,31.335 70.5,31.5 Z"/></g>
<g><path style="opacity:1" fill="#fef6db" d="M 17.5,33.5 C 17.1667,34.8333 16.8333,36.1667 16.5,37.5C 14.9862,39.364 13.6528,41.364 12.5,43.5C 12.5919,39.3159 14.2586,35.9826 17.5,33.5 Z"/></g>
<g><path style="opacity:1" fill="#eabf23" d="M 19.5,41.5 C 18.8592,43.0423 17.8592,44.3757 16.5,45.5C 15.6143,44.675 15.281,43.675 15.5,42.5C 15.2627,41.209 15.596,40.209 16.5,39.5C 20.3309,33.9685 21.3309,34.6352 19.5,41.5 Z"/></g>
<g><path style="opacity:1" fill="#c4e8f6" d="M 98.5,32.5 C 102.161,36.8246 104.494,41.8246 105.5,47.5C 106.833,47.5 108.167,47.5 109.5,47.5C 108.448,49.256 106.781,49.9227 104.5,49.5C 102.759,43.6968 100.759,38.0301 98.5,32.5 Z"/></g>
<g><path style="opacity:1" fill="#bee1f5" d="M 105.5,34.5 C 106.15,34.8039 106.817,35.1373 107.5,35.5C 108.518,37.5939 109.518,39.5939 110.5,41.5C 110.795,43.7354 110.461,45.7354 109.5,47.5C 109.361,42.7528 108.028,38.4195 105.5,34.5 Z"/></g>
<g><path style="opacity:1" fill="#fbf9eb" d="M 24.5,32.5 C 25.1667,32.5 25.8333,32.5 26.5,32.5C 27.1098,33.391 27.4431,34.391 27.5,35.5C 26.7677,36.8083 25.9344,38.1416 25,39.5C 24.6667,39.1667 24.3333,38.8333 24,38.5C 23.4054,39.8989 23.5721,41.2322 24.5,42.5C 22.8149,44.5707 21.1482,46.5707 19.5,48.5C 19.5,47.8333 19.5,47.1667 19.5,46.5C 20.9215,43.7062 21.9215,40.7062 22.5,37.5C 22.5,36.8333 22.5,36.1667 22.5,35.5C 23.9063,35.0269 24.573,34.0269 24.5,32.5 Z"/></g>
<g><path style="opacity:1" fill="#8d939b" d="M 33.5,32.5 C 33.5,32.1667 33.5,31.8333 33.5,31.5C 35.8583,31.2525 37.8583,31.9192 39.5,33.5C 42.1667,37.1667 44.8333,40.8333 47.5,44.5C 48.0906,45.1515 48.7573,45.8182 49.5,46.5C 48.9984,47.521 48.3317,47.6877 47.5,47C 43.9753,43.4431 40.8086,39.6097 38,35.5C 36.871,33.8588 35.371,32.8588 33.5,32.5 Z"/></g>
<g><path style="opacity:1" fill="#8e99a4" d="M 71.5,37.5 C 71.8333,37.5 72.1667,37.5 72.5,37.5C 68.894,43.4378 64.5607,48.7712 59.5,53.5C 63.1223,47.8785 67.1223,42.5451 71.5,37.5 Z"/></g>
<g><path style="opacity:1" fill="#ecca60" d="M 19.5,41.5 C 19.5,43.1667 19.5,44.8333 19.5,46.5C 17.9582,47.3007 16.2915,47.634 14.5,47.5C 14.2155,45.5853 14.5489,43.9187 15.5,42.5C 15.281,43.675 15.6143,44.675 16.5,45.5C 17.8592,44.3757 18.8592,43.0423 19.5,41.5 Z"/></g>
<g><path style="opacity:1" fill="#f7e8af" d="M 16.5,37.5 C 16.5,38.1667 16.5,38.8333 16.5,39.5C 15.596,40.209 15.2627,41.209 15.5,42.5C 14.5489,43.9187 14.2155,45.5853 14.5,47.5C 16.2915,47.634 17.9582,47.3007 19.5,46.5C 19.5,47.1667 19.5,47.8333 19.5,48.5C 16.9165,49.9377 14.5832,49.6044 12.5,47.5C 12.5,46.1667 12.5,44.8333 12.5,43.5C 13.6528,41.364 14.9862,39.364 16.5,37.5 Z"/></g>
<g><path style="opacity:1" fill="#fcf0c3" d="M 22.5,37.5 C 21.9215,40.7062 20.9215,43.7062 19.5,46.5C 19.5,44.8333 19.5,43.1667 19.5,41.5C 20.8571,40.4097 21.8571,39.0764 22.5,37.5 Z"/></g>
<g><path style="opacity:1" fill="#b4bdc4" d="M 70.5,31.5 C 67.1501,31.335 63.8168,31.5017 60.5,32C 63.0512,32.0023 65.0512,32.8356 66.5,34.5C 65.8902,35.391 65.5569,36.391 65.5,37.5C 61.7899,41.2079 58.4566,45.2079 55.5,49.5C 54.6236,49.6309 53.9569,49.2975 53.5,48.5C 56.4763,44.3562 59.643,40.3562 63,36.5C 63.6877,35.6683 63.521,35.0016 62.5,34.5C 58.4614,38.3746 54.9614,42.708 52,47.5C 50.1159,49.5763 47.9492,49.9097 45.5,48.5C 42.1793,43.8482 38.5126,39.5149 34.5,35.5C 33.479,36.0016 33.3123,36.6683 34,37.5C 38.1851,42.5707 42.3518,47.5707 46.5,52.5C 46.5,53.1667 46.8333,53.5 47.5,53.5C 47.1667,54.8333 46.8333,56.1667 46.5,57.5C 43.9454,55.3936 41.6121,53.0602 39.5,50.5C 36.5297,45.5367 33.1964,40.8701 29.5,36.5C 29.5,35.1667 29.5,33.8333 29.5,32.5C 30.8333,32.5 32.1667,32.5 33.5,32.5C 35.371,32.8588 36.871,33.8588 38,35.5C 40.8086,39.6097 43.9753,43.4431 47.5,47C 48.3317,47.6877 48.9984,47.521 49.5,46.5C 48.7573,45.8182 48.0906,45.1515 47.5,44.5C 52.6373,41.0248 56.304,36.3582 58.5,30.5C 62.7016,30.1832 66.7016,30.5166 70.5,31.5 Z"/></g>
<g><path style="opacity:1" fill="#324454" d="M 71.5,37.5 C 67.1223,42.5451 63.1223,47.8785 59.5,53.5C 58.8999,54.9002 57.8999,55.9002 56.5,56.5C 55.596,57.209 55.2627,58.209 55.5,59.5C 53.8333,59.5 52.1667,59.5 50.5,59.5C 49.391,59.4431 48.391,59.1098 47.5,58.5C 48.1834,56.8235 49.5168,56.1568 51.5,56.5C 52.7092,54.1822 54.0426,51.8489 55.5,49.5C 58.4566,45.2079 61.7899,41.2079 65.5,37.5C 66.973,36.2599 68.6396,35.2599 70.5,34.5C 71.3857,35.325 71.719,36.325 71.5,37.5 Z"/></g>
<g><path style="opacity:1" fill="#495464" d="M 47.5,53.5 C 46.8333,53.5 46.5,53.1667 46.5,52.5C 46.62,51.4138 47.2867,50.7472 48.5,50.5C 50.9657,51.9474 50.6323,52.9474 47.5,53.5 Z"/></g>
<g><path style="opacity:1" fill="#6d7a85" d="M 55.5,49.5 C 54.0426,51.8489 52.7092,54.1822 51.5,56.5C 49.5168,56.1568 48.1834,56.8235 47.5,58.5C 46.8333,58.5 46.5,58.1667 46.5,57.5C 46.8333,56.1667 47.1667,54.8333 47.5,53.5C 50.6323,52.9474 50.9657,51.9474 48.5,50.5C 47.2867,50.7472 46.62,51.4138 46.5,52.5C 42.3518,47.5707 38.1851,42.5707 34,37.5C 33.3123,36.6683 33.479,36.0016 34.5,35.5C 38.5126,39.5149 42.1793,43.8482 45.5,48.5C 47.9492,49.9097 50.1159,49.5763 52,47.5C 54.9614,42.708 58.4614,38.3746 62.5,34.5C 63.521,35.0016 63.6877,35.6683 63,36.5C 59.643,40.3562 56.4763,44.3562 53.5,48.5C 53.9569,49.2975 54.6236,49.6309 55.5,49.5 Z"/></g>
<g><path style="opacity:1" fill="#656e7a" d="M 84.5,50.5 C 85.172,51.2674 86.0053,51.9341 87,52.5C 87.4998,61.1603 87.6664,69.8269 87.5,78.5C 85.0336,79.6341 82.367,79.8007 79.5,79C 78.944,78.6174 78.6107,78.1174 78.5,77.5C 81.1667,77.5 83.8333,77.5 86.5,77.5C 86.6664,69.4931 86.4997,61.4931 86,53.5C 85.3292,52.7476 84.4959,52.4142 83.5,52.5C 83.3284,51.5084 83.6618,50.8417 84.5,50.5 Z"/></g>
<g><path style="opacity:1" fill="#d0d5db" d="M 84.5,50.5 C 86.1439,50.2865 87.6439,50.6198 89,51.5C 89.6667,60.1667 89.6667,68.8333 89,77.5C 88.6174,78.056 88.1174,78.3893 87.5,78.5C 87.6664,69.8269 87.4998,61.1603 87,52.5C 86.0053,51.9341 85.172,51.2674 84.5,50.5 Z"/></g>
<g><path style="opacity:1" fill="#9aa4ad" d="M 105.5,58.5 C 106.919,57.5489 108.585,57.2155 110.5,57.5C 110.784,59.4147 110.451,61.0813 109.5,62.5C 109.5,61.1667 109.5,59.8333 109.5,58.5C 108.167,58.5 106.833,58.5 105.5,58.5 Z"/></g>
<g><path style="opacity:1" fill="#5a6671" d="M 105.5,58.5 C 106.833,58.5 108.167,58.5 109.5,58.5C 109.5,59.8333 109.5,61.1667 109.5,62.5C 109.5,63.8333 109.5,65.1667 109.5,66.5C 109.167,66.5 108.833,66.5 108.5,66.5C 108.808,64.076 108.474,61.7427 107.5,59.5C 106.817,59.8627 106.15,60.1961 105.5,60.5C 105.5,59.8333 105.5,59.1667 105.5,58.5 Z"/></g>
<g><path style="opacity:1" fill="#81a1cb" d="M 13.5,57.5 C 17.8333,57.1667 19.8333,59.1667 19.5,63.5C 19.6287,65.2161 19.962,66.8828 20.5,68.5C 19.1888,65.3748 17.5221,62.3748 15.5,59.5C 14.9426,61.7175 14.9426,64.0509 15.5,66.5C 14.8333,65.5 14.1667,64.5 13.5,63.5C 13.5,61.5 13.5,59.5 13.5,57.5 Z"/></g>
<g><path style="opacity:1" fill="#878e97" d="M 59.5,53.5 C 61.2208,56.5851 63.2208,59.5851 65.5,62.5C 68.3002,64.4756 67.9669,65.3089 64.5,65C 62.8333,62.6667 61.1667,60.3333 59.5,58C 58.184,57.4719 57.5173,57.9719 57.5,59.5C 56.596,58.791 56.2627,57.791 56.5,56.5C 57.8999,55.9002 58.8999,54.9002 59.5,53.5 Z"/></g>
<g><path style="opacity:1" fill="#666f79" d="M 57.5,63.5 C 56.8549,62.1882 55.8549,61.1882 54.5,60.5C 53.5091,64.4454 53.1758,68.4454 53.5,72.5C 52.5,72.5 51.5,72.5 50.5,72.5C 50.5,68.8333 50.5,65.1667 50.5,61.5C 50.5,60.8333 50.5,60.1667 50.5,59.5C 52.1667,59.5 53.8333,59.5 55.5,59.5C 55.2627,58.209 55.596,57.209 56.5,56.5C 56.2627,57.791 56.596,58.791 57.5,59.5C 60.1691,62.8421 62.8358,66.1754 65.5,69.5C 70.4055,64.0174 75.0722,58.3508 79.5,52.5C 80.8333,59.1667 80.8333,65.8333 79.5,72.5C 78.8333,67.8333 78.1667,63.1667 77.5,58.5C 73.8315,63.332 69.9982,67.9987 66,72.5C 63.0027,69.6689 60.1693,66.6689 57.5,63.5 Z"/></g>
<g><path style="opacity:1" fill="#33424f" d="M 108.5,66.5 C 107.288,67.2299 106.288,68.2299 105.5,69.5C 104.702,69.0431 104.369,68.3764 104.5,67.5C 105.219,65.2362 105.552,62.9029 105.5,60.5C 106.15,60.1961 106.817,59.8627 107.5,59.5C 108.474,61.7427 108.808,64.076 108.5,66.5 Z"/></g>
<g><path style="opacity:1" fill="#bcd2ea" d="M 13.5,63.5 C 14.1667,64.5 14.8333,65.5 15.5,66.5C 16.242,68.9798 17.242,71.3131 18.5,73.5C 18.5,74.1667 18.5,74.8333 18.5,75.5C 15.2935,72.2321 13.6268,68.2321 13.5,63.5 Z"/></g>
<g><path style="opacity:1" fill="#989ea7" d="M 47.5,58.5 C 48.391,59.1098 49.391,59.4431 50.5,59.5C 50.5,60.1667 50.5,60.8333 50.5,61.5C 49.2057,63.0478 48.5391,65.0478 48.5,67.5C 47.106,72.9383 49.106,75.2716 54.5,74.5C 54.5,74.8333 54.5,75.1667 54.5,75.5C 52.8008,75.3398 51.1341,75.5065 49.5,76C 50.056,76.3826 50.3893,76.8826 50.5,77.5C 49.5041,77.5858 48.6708,77.2524 48,76.5C 47.5005,70.5092 47.3338,64.5092 47.5,58.5 Z"/></g>
<g><path style="opacity:1" fill="#7a8793" d="M 105.5,58.5 C 105.5,59.1667 105.5,59.8333 105.5,60.5C 105.552,62.9029 105.219,65.2362 104.5,67.5C 103.094,67.9731 102.427,68.9731 102.5,70.5C 102.269,73.0632 100.935,74.7298 98.5,75.5C 101.381,69.9878 103.715,64.3211 105.5,58.5 Z"/></g>
<g><path style="opacity:1" fill="#c0c8d0" d="M 57.5,63.5 C 57.6716,64.4916 57.3382,65.1583 56.5,65.5C 56.44,64.9569 56.1067,64.6236 55.5,64.5C 54.513,67.7683 54.1796,71.1016 54.5,74.5C 49.106,75.2716 47.106,72.9383 48.5,67.5C 48.5391,65.0478 49.2057,63.0478 50.5,61.5C 50.5,65.1667 50.5,68.8333 50.5,72.5C 51.5,72.5 52.5,72.5 53.5,72.5C 53.1758,68.4454 53.5091,64.4454 54.5,60.5C 55.8549,61.1882 56.8549,62.1882 57.5,63.5 Z"/></g>
<g><path style="opacity:1" fill="#939ea9" d="M 56.5,65.5 C 55.8333,68.5 55.1667,71.5 54.5,74.5C 54.1796,71.1016 54.513,67.7683 55.5,64.5C 56.1067,64.6236 56.44,64.9569 56.5,65.5 Z"/></g>
<g><path style="opacity:1" fill="#55606d" d="M 56.5,65.5 C 57.1667,66.5 57.8333,67.5 58.5,68.5C 57.1667,70.8333 55.8333,73.1667 54.5,75.5C 54.5,75.1667 54.5,74.8333 54.5,74.5C 55.1667,71.5 55.8333,68.5 56.5,65.5 Z"/></g>
<g><path style="opacity:1" fill="#c4dbf0" d="M 19.5,63.5 C 22.8462,67.5255 25.1796,72.1921 26.5,77.5C 24.5,74.8333 22.5,72.1667 20.5,69.5C 20.5,69.1667 20.5,68.8333 20.5,68.5C 19.962,66.8828 19.6287,65.2161 19.5,63.5 Z"/></g>
<g><path style="opacity:1" fill="#4a5865" d="M 108.5,66.5 C 107.773,68.9538 106.773,71.2872 105.5,73.5C 105.167,73.5 104.833,73.5 104.5,73.5C 104.715,71.8212 104.048,70.8212 102.5,70.5C 102.427,68.9731 103.094,67.9731 104.5,67.5C 104.369,68.3764 104.702,69.0431 105.5,69.5C 106.288,68.2299 107.288,67.2299 108.5,66.5 Z"/></g>
<g><path style="opacity:1" fill="#d4dce1" d="M 108.5,66.5 C 108.833,66.5 109.167,66.5 109.5,66.5C 109.708,70.0848 108.375,72.7515 105.5,74.5C 105.5,74.1667 105.5,73.8333 105.5,73.5C 106.773,71.2872 107.773,68.9538 108.5,66.5 Z"/></g>
<g><path style="opacity:1" fill="#667582" d="M 76.5,74.5 C 76.1583,75.3382 75.4916,75.6716 74.5,75.5C 76.1774,72.3846 75.8441,69.7179 73.5,67.5C 73.811,66.5222 74.4777,65.8555 75.5,65.5C 76.4841,68.4281 76.8174,71.4281 76.5,74.5 Z"/></g>
<g><path style="opacity:1" fill="#4c7cb3" d="M 20.5,68.5 C 20.5,68.8333 20.5,69.1667 20.5,69.5C 20.7709,71.3797 20.1042,72.713 18.5,73.5C 17.242,71.3131 16.242,68.9798 15.5,66.5C 14.9426,64.0509 14.9426,61.7175 15.5,59.5C 17.5221,62.3748 19.1888,65.3748 20.5,68.5 Z"/></g>
<g><path style="opacity:1" fill="#b0b9c3" d="M 84.5,50.5 C 83.6618,50.8417 83.3284,51.5084 83.5,52.5C 83.5,59.8333 83.5,67.1667 83.5,74.5C 81.1667,74.5 78.8333,74.5 76.5,74.5C 76.8174,71.4281 76.4841,68.4281 75.5,65.5C 74.4777,65.8555 73.811,66.5222 73.5,67.5C 71.5879,69.6572 69.9213,71.9906 68.5,74.5C 66.2188,74.0773 64.5521,74.744 63.5,76.5C 62.8485,75.9094 62.1818,75.2427 61.5,74.5C 60.8281,75.9492 60.1614,77.2825 59.5,78.5C 59.8128,74.9581 59.4794,71.6248 58.5,68.5C 57.8333,67.5 57.1667,66.5 56.5,65.5C 57.3382,65.1583 57.6716,64.4916 57.5,63.5C 60.1693,66.6689 63.0027,69.6689 66,72.5C 69.9982,67.9987 73.8315,63.332 77.5,58.5C 78.1667,63.1667 78.8333,67.8333 79.5,72.5C 80.8333,65.8333 80.8333,59.1667 79.5,52.5C 75.0722,58.3508 70.4055,64.0174 65.5,69.5C 62.8358,66.1754 60.1691,62.8421 57.5,59.5C 57.5173,57.9719 58.184,57.4719 59.5,58C 61.1667,60.3333 62.8333,62.6667 64.5,65C 67.9669,65.3089 68.3002,64.4756 65.5,62.5C 67.0174,62.4894 68.1841,61.8228 69,60.5C 70,58.5 71,56.5 72,54.5C 75.1922,49.6816 79.3589,48.3482 84.5,50.5 Z"/></g>
<g><path style="opacity:1" fill="#828c9b" d="M 76.5,74.5 C 78.8333,74.5 81.1667,74.5 83.5,74.5C 81.7078,75.3091 79.7078,75.8091 77.5,76C 78.056,76.3826 78.3893,76.8826 78.5,77.5C 77.4168,77.4606 76.4168,77.1272 75.5,76.5C 74.4822,77.1925 73.4822,77.8592 72.5,78.5C 72.427,76.9731 73.0937,75.9731 74.5,75.5C 75.4916,75.6716 76.1583,75.3382 76.5,74.5 Z"/></g>
<g><path style="opacity:1" fill="#304052" d="M 58.5,68.5 C 58.5,71.5 58.5,74.5 58.5,77.5C 55.8333,77.5 53.1667,77.5 50.5,77.5C 50.3893,76.8826 50.056,76.3826 49.5,76C 51.1341,75.5065 52.8008,75.3398 54.5,75.5C 55.8333,73.1667 57.1667,70.8333 58.5,68.5 Z"/></g>
<g><path style="opacity:1" fill="#86909b" d="M 68.5,74.5 C 67.0998,75.1001 66.0998,76.1001 65.5,77.5C 64.8333,77.1667 64.1667,76.8333 63.5,76.5C 64.5521,74.744 66.2188,74.0773 68.5,74.5 Z"/></g>
<g><path style="opacity:1" fill="#3a4757" d="M 73.5,67.5 C 75.8441,69.7179 76.1774,72.3846 74.5,75.5C 73.0937,75.9731 72.427,76.9731 72.5,78.5C 70.0504,78.702 67.717,78.3686 65.5,77.5C 66.0998,76.1001 67.0998,75.1001 68.5,74.5C 69.9213,71.9906 71.5879,69.6572 73.5,67.5 Z"/></g>
<g><path style="opacity:1" fill="#334053" d="M 83.5,52.5 C 84.4959,52.4142 85.3292,52.7476 86,53.5C 86.4997,61.4931 86.6664,69.4931 86.5,77.5C 83.8333,77.5 81.1667,77.5 78.5,77.5C 78.3893,76.8826 78.056,76.3826 77.5,76C 79.7078,75.8091 81.7078,75.3091 83.5,74.5C 83.5,67.1667 83.5,59.8333 83.5,52.5 Z"/></g>
<g><path style="opacity:1" fill="#646d7b" d="M 58.5,68.5 C 59.4794,71.6248 59.8128,74.9581 59.5,78.5C 57.0336,79.6341 54.367,79.8007 51.5,79C 50.944,78.6174 50.6107,78.1174 50.5,77.5C 53.1667,77.5 55.8333,77.5 58.5,77.5C 58.5,74.5 58.5,71.5 58.5,68.5 Z"/></g>
<g><path style="opacity:1" fill="#8cadd7" d="M 26.5,77.5 C 28.5,78.8333 30.1667,80.5 31.5,82.5C 28.8333,81.8333 27.1667,80.1667 26.5,77.5 Z"/></g>
<g><path style="opacity:1" fill="#a3aab1" d="M 65.5,77.5 C 67.717,78.3686 70.0504,78.702 72.5,78.5C 71.5514,79.1524 70.3847,79.4857 69,79.5C 67.3189,79.3917 66.1522,78.7251 65.5,77.5 Z"/></g>
<g><path style="opacity:1" fill="#99a3ab" d="M 104.5,73.5 C 104.833,73.5 105.167,73.5 105.5,73.5C 105.5,73.8333 105.5,74.1667 105.5,74.5C 104.513,76.5511 103.18,78.2178 101.5,79.5C 101.975,77.2163 102.975,75.2163 104.5,73.5 Z"/></g>
<g><path style="opacity:1" fill="#c0d7ed" d="M 20.5,77.5 C 23.1395,80.8062 26.1395,83.8062 29.5,86.5C 29.5,86.8333 29.5,87.1667 29.5,87.5C 25.0295,85.3692 22.0295,82.0359 20.5,77.5 Z"/></g>
<g><path style="opacity:1" fill="#5683b5" d="M 20.5,69.5 C 22.5,72.1667 24.5,74.8333 26.5,77.5C 27.1667,80.1667 28.8333,81.8333 31.5,82.5C 33.1478,84.8722 32.4811,86.2056 29.5,86.5C 26.1395,83.8062 23.1395,80.8062 20.5,77.5C 19.8333,76.8333 19.1667,76.1667 18.5,75.5C 18.5,74.8333 18.5,74.1667 18.5,73.5C 20.1042,72.713 20.7709,71.3797 20.5,69.5 Z"/></g>
<g><path style="opacity:1" fill="#9ba6af" d="M 101.5,79.5 C 100.92,81.7488 99.5869,83.4154 97.5,84.5C 98.0798,82.2512 99.4131,80.5846 101.5,79.5 Z"/></g>
<g><path style="opacity:1" fill="#7297c1" d="M 31.5,82.5 C 33.3885,83.604 35.0552,84.9373 36.5,86.5C 35.5,86.5 34.5,86.5 33.5,86.5C 33.4326,87.9587 33.7659,89.2921 34.5,90.5C 32.5887,89.925 30.922,88.925 29.5,87.5C 29.5,87.1667 29.5,86.8333 29.5,86.5C 32.4811,86.2056 33.1478,84.8722 31.5,82.5 Z"/></g>
<g><path style="opacity:1" fill="#8e99a0" d="M 98.5,75.5 C 95.7565,80.5784 91.7565,84.2451 86.5,86.5C 90.5201,82.8114 94.5201,79.1447 98.5,75.5 Z"/></g>
<g><path style="opacity:1" fill="#aec8e3" d="M 36.5,86.5 C 41.8314,87.7205 46.8314,89.7205 51.5,92.5C 45.8637,91.8403 40.8637,89.8403 36.5,86.5 Z"/></g>
<g><path style="opacity:1" fill="#7d8390" d="M 84.5,86.5 C 85.1667,86.5 85.8333,86.5 86.5,86.5C 85.7377,88.2624 84.4044,89.2624 82.5,89.5C 83.1667,88.5 83.8333,87.5 84.5,86.5 Z"/></g>
<g><path style="opacity:1" fill="#93a1ae" d="M 97.5,84.5 C 95.7036,86.9 93.3702,88.5667 90.5,89.5C 92.2964,87.1 94.6298,85.4333 97.5,84.5 Z"/></g>
<g><path style="opacity:1" fill="#5782b3" d="M 36.5,86.5 C 40.8637,89.8403 45.8637,91.8403 51.5,92.5C 52.5,92.5 53.5,92.5 54.5,92.5C 54.5,93.8333 54.5,95.1667 54.5,96.5C 52.5,96.5 50.5,96.5 48.5,96.5C 46.064,95.129 43.3973,94.129 40.5,93.5C 40.1667,93.5 39.8333,93.5 39.5,93.5C 39.0269,92.0937 38.0269,91.427 36.5,91.5C 35.5084,91.6716 34.8417,91.3382 34.5,90.5C 33.7659,89.2921 33.4326,87.9587 33.5,86.5C 34.5,86.5 35.5,86.5 36.5,86.5 Z"/></g>
<g><path style="opacity:1" fill="#cad1da" d="M 84.5,86.5 C 83.8333,87.5 83.1667,88.5 82.5,89.5C 79.8333,90.1667 77.1667,90.8333 74.5,91.5C 77.46,89.2444 80.7934,87.5778 84.5,86.5 Z"/></g>
<g><path style="opacity:1" fill="#acb5be" d="M 90.5,89.5 C 89.9653,91.4456 88.632,92.4456 86.5,92.5C 86.5,92.1667 86.5,91.8333 86.5,91.5C 87.5137,90.3263 88.847,89.6596 90.5,89.5 Z"/></g>
<g><path style="opacity:1" fill="#e8f5fb" d="M 29.5,87.5 C 30.922,88.925 32.5887,89.925 34.5,90.5C 34.8417,91.3382 35.5084,91.6716 36.5,91.5C 36.9731,92.9063 37.9731,93.573 39.5,93.5C 39.8333,93.5 40.1667,93.5 40.5,93.5C 40.8333,94.1667 41.1667,94.8333 41.5,95.5C 35.0898,96.2494 31.0898,93.5827 29.5,87.5 Z"/></g>
<g><path style="opacity:1" fill="#9ec0e0" d="M 36.5,91.5 C 38.0269,91.427 39.0269,92.0937 39.5,93.5C 37.9731,93.573 36.9731,92.9063 36.5,91.5 Z"/></g>
<g><path style="opacity:1" fill="#96a0ab" d="M 74.5,91.5 C 72.4006,92.6118 70.0673,93.2785 67.5,93.5C 67.1667,93.5 66.8333,93.5 66.5,93.5C 68.8383,91.9605 71.5049,91.2938 74.5,91.5 Z"/></g>
<g><path style="opacity:1" fill="#858d95" d="M 86.5,91.5 C 86.5,91.8333 86.5,92.1667 86.5,92.5C 84.7179,93.7196 82.7179,94.3862 80.5,94.5C 82.0301,92.6535 84.0301,91.6535 86.5,91.5 Z"/></g>
<g><path style="opacity:1" fill="#a7c4e3" d="M 40.5,93.5 C 43.3973,94.129 46.064,95.129 48.5,96.5C 46.139,96.3259 43.8056,95.9926 41.5,95.5C 41.1667,94.8333 40.8333,94.1667 40.5,93.5 Z"/></g>
<g><path style="opacity:1" fill="#717982" d="M 66.5,93.5 C 66.8333,93.5 67.1667,93.5 67.5,93.5C 67.5,94.5 67.5,95.5 67.5,96.5C 68.8333,96.5 70.1667,96.5 71.5,96.5C 70.0813,97.4511 68.4147,97.7845 66.5,97.5C 66.5,96.1667 66.5,94.8333 66.5,93.5 Z"/></g>
<g><path style="opacity:1" fill="#384757" d="M 102.5,70.5 C 104.048,70.8212 104.715,71.8212 104.5,73.5C 102.975,75.2163 101.975,77.2163 101.5,79.5C 99.4131,80.5846 98.0798,82.2512 97.5,84.5C 94.6298,85.4333 92.2964,87.1 90.5,89.5C 88.847,89.6596 87.5137,90.3263 86.5,91.5C 84.0301,91.6535 82.0301,92.6535 80.5,94.5C 78.4471,94.4021 76.7804,95.0687 75.5,96.5C 74.1667,96.5 72.8333,96.5 71.5,96.5C 70.1667,96.5 68.8333,96.5 67.5,96.5C 67.5,95.5 67.5,94.5 67.5,93.5C 70.0673,93.2785 72.4006,92.6118 74.5,91.5C 77.1667,90.8333 79.8333,90.1667 82.5,89.5C 84.4044,89.2624 85.7377,88.2624 86.5,86.5C 91.7565,84.2451 95.7565,80.5784 98.5,75.5C 100.935,74.7298 102.269,73.0632 102.5,70.5 Z"/></g>
<g><path style="opacity:1" fill="#aab5c2" d="M 80.5,94.5 C 80.1667,95.1667 79.8333,95.8333 79.5,96.5C 78.1667,96.5 76.8333,96.5 75.5,96.5C 76.7804,95.0687 78.4471,94.4021 80.5,94.5 Z"/></g>
<g><path style="opacity:1" fill="#a7c2dc" d="M 54.5,92.5 C 55.4511,93.9187 55.7845,95.5853 55.5,97.5C 52.9407,97.8016 50.6074,97.4682 48.5,96.5C 50.5,96.5 52.5,96.5 54.5,96.5C 54.5,95.1667 54.5,93.8333 54.5,92.5 Z"/></g>
</svg>
