<?xml version="1.0" encoding="UTF-8"?>
<!DOCTYPE svg PUBLIC "-//W3C//DTD SVG 1.1//EN" "http://www.w3.org/Graphics/SVG/1.1/DTD/svg11.dtd">
<svg xmlns="http://www.w3.org/2000/svg" version="1.1" width="119px" height="104px" style="shape-rendering:geometricPrecision; text-rendering:geometricPrecision; image-rendering:optimizeQuality; fill-rule:evenodd; clip-rule:evenodd" xmlns:xlink="http://www.w3.org/1999/xlink">
<g><path style="opacity:0.18" fill="#f9edc0" d="M 55.5,10.5 C 53.5853,10.2155 51.9187,10.5489 50.5,11.5C 48.8333,11.5 47.1667,11.5 45.5,11.5C 48.7369,9.62364 52.0702,9.29031 55.5,10.5 Z"/></g>
<g><path style="opacity:1" fill="#e8c959" d="M 45.5,12.5 C 45.5,12.1667 45.5,11.8333 45.5,11.5C 47.1667,11.5 48.8333,11.5 50.5,11.5C 51.8333,11.5 53.1667,11.5 54.5,11.5C 54.5,12.8333 54.5,14.1667 54.5,15.5C 53.5,15.5 52.5,15.5 51.5,15.5C 51.8039,14.8501 52.1373,14.1835 52.5,13.5C 50.9547,12.5481 49.288,12.2148 47.5,12.5C 46.8333,12.5 46.1667,12.5 45.5,12.5 Z"/></g>
<g><path style="opacity:0.359" fill="#c6e8f5" d="M 72.5,10.5 C 70.5,10.5 68.5,10.5 66.5,10.5C 66.3653,12.5542 67.032,14.2209 68.5,15.5C 68.1667,15.5 67.8333,15.5 67.5,15.5C 65.2431,14.3872 64.5764,12.7205 65.5,10.5C 67.9732,9.20308 70.3066,9.20308 72.5,10.5 Z"/></g>
<g><path style="opacity:1" fill="#70b6d5" d="M 72.5,10.5 C 74.5,11.5 76.5,12.5 78.5,13.5C 77.8333,13.5 77.1667,13.5 76.5,13.5C 73.8589,12.7369 71.1922,12.5702 68.5,13C 70.9368,14.3747 73.6035,14.8747 76.5,14.5C 76.5,15.1667 76.5,15.8333 76.5,16.5C 73.9039,15.7347 71.2372,15.4013 68.5,15.5C 67.032,14.2209 66.3653,12.5542 66.5,10.5C 68.5,10.5 70.5,10.5 72.5,10.5 Z"/></g>
<g><path style="opacity:0.153" fill="#bde0f3" d="M 72.5,10.5 C 77.8362,10.6096 82.5029,12.2763 86.5,15.5C 84.8828,14.962 83.2161,14.6287 81.5,14.5C 81.1667,14.5 80.8333,14.5 80.5,14.5C 80.1583,13.6618 79.4916,13.3284 78.5,13.5C 76.5,12.5 74.5,11.5 72.5,10.5 Z"/></g>
<g><path style="opacity:1" fill="#eabc2a" d="M 47.5,12.5 C 49.288,12.2148 50.9547,12.5481 52.5,13.5C 52.1373,14.1835 51.8039,14.8501 51.5,15.5C 49.901,15.2322 48.5676,15.5655 47.5,16.5C 46.8333,16.5 46.1667,16.5 45.5,16.5C 43.901,16.7678 42.5676,16.4345 41.5,15.5C 43.5,14.5 45.5,13.5 47.5,12.5 Z"/></g>
<g><path style="opacity:0.737" fill="#f5e29a" d="M 50.5,11.5 C 51.9187,10.5489 53.5853,10.2155 55.5,10.5C 55.5,12.1667 55.5,13.8333 55.5,15.5C 54.4324,16.4345 53.099,16.7678 51.5,16.5C 50.1667,16.5 48.8333,16.5 47.5,16.5C 48.5676,15.5655 49.901,15.2322 51.5,15.5C 52.5,15.5 53.5,15.5 54.5,15.5C 54.5,14.1667 54.5,12.8333 54.5,11.5C 53.1667,11.5 51.8333,11.5 50.5,11.5 Z"/></g>
<g><path style="opacity:0.333" fill="#fef2d0" d="M 55.5,10.5 C 58.1667,12.1667 58.1667,13.8333 55.5,15.5C 55.5,13.8333 55.5,12.1667 55.5,10.5 Z"/></g>
<g><path style="opacity:1" fill="#4da9d2" d="M 76.5,13.5 C 76.5,13.8333 76.5,14.1667 76.5,14.5C 73.6035,14.8747 70.9368,14.3747 68.5,13C 71.1922,12.5702 73.8589,12.7369 76.5,13.5 Z"/></g>
<g><path style="opacity:1" fill="#64b0d9" d="M 76.5,13.5 C 77.1667,13.5 77.8333,13.5 78.5,13.5C 79.4916,13.3284 80.1583,13.6618 80.5,14.5C 79.448,14.3505 78.448,14.5172 77.5,15C 78.5707,15.8518 79.5707,16.6851 80.5,17.5C 79.1667,17.5 77.8333,17.5 76.5,17.5C 76.5,17.1667 76.5,16.8333 76.5,16.5C 76.5,15.8333 76.5,15.1667 76.5,14.5C 76.5,14.1667 76.5,13.8333 76.5,13.5 Z"/></g>
<g><path style="opacity:1" fill="#50a4d4" d="M 80.5,14.5 C 80.8333,14.5 81.1667,14.5 81.5,14.5C 81.8807,15.9311 82.8807,16.7645 84.5,17C 83.2068,17.49 81.8734,17.6567 80.5,17.5C 79.5707,16.6851 78.5707,15.8518 77.5,15C 78.448,14.5172 79.448,14.3505 80.5,14.5 Z"/></g>
<g><path style="opacity:0.212" fill="#fceebc" d="M 45.5,11.5 C 45.5,11.8333 45.5,12.1667 45.5,12.5C 42.0534,13.083 39.0534,14.4163 36.5,16.5C 34.9382,16.7329 33.6049,17.3995 32.5,18.5C 31.8333,18.5 31.1667,18.5 30.5,18.5C 34.8246,14.8391 39.8246,12.5058 45.5,11.5 Z"/></g>
<g><path style="opacity:1" fill="#edc957" d="M 45.5,12.5 C 46.1667,12.5 46.8333,12.5 47.5,12.5C 45.5,13.5 43.5,14.5 41.5,15.5C 40.8333,15.5 40.5,15.8333 40.5,16.5C 39.1667,16.5 37.8333,16.5 36.5,16.5C 39.0534,14.4163 42.0534,13.083 45.5,12.5 Z"/></g>
<g><path style="opacity:0.165" fill="#cbeefb" d="M 67.5,15.5 C 67.8333,15.5 68.1667,15.5 68.5,15.5C 71.2372,15.4013 73.9039,15.7347 76.5,16.5C 76.5,16.8333 76.5,17.1667 76.5,17.5C 73.2727,17.3239 70.2727,16.6572 67.5,15.5 Z"/></g>
<g><path style="opacity:1" fill="#eec74f" d="M 41.5,15.5 C 42.5676,16.4345 43.901,16.7678 45.5,16.5C 44.1667,17.5 42.8333,18.5 41.5,19.5C 40.8333,19.5 40.1667,19.5 39.5,19.5C 40.1098,18.609 40.4431,17.609 40.5,16.5C 40.5,15.8333 40.8333,15.5 41.5,15.5 Z"/></g>
<g><path style="opacity:0.173" fill="#fcf0c4" d="M 45.5,16.5 C 46.1667,16.5 46.8333,16.5 47.5,16.5C 48.8333,16.5 50.1667,16.5 51.5,16.5C 48.3223,18.0086 44.9889,19.342 41.5,20.5C 41.5,20.1667 41.5,19.8333 41.5,19.5C 42.8333,18.5 44.1667,17.5 45.5,16.5 Z"/></g>
<g><path style="opacity:1" fill="#65aed7" d="M 81.5,14.5 C 83.2161,14.6287 84.8828,14.962 86.5,15.5C 87.3065,16.7281 88.3065,17.7281 89.5,18.5C 87.901,18.2322 86.5676,18.5655 85.5,19.5C 83.597,19.2041 81.9303,18.5375 80.5,17.5C 81.8734,17.6567 83.2068,17.49 84.5,17C 82.8807,16.7645 81.8807,15.9311 81.5,14.5 Z"/></g>
<g><path style="opacity:0.58" fill="#b9dcf4" d="M 76.5,17.5 C 77.8333,17.5 79.1667,17.5 80.5,17.5C 81.9303,18.5375 83.597,19.2041 85.5,19.5C 85.8333,20.1667 86.1667,20.8333 86.5,21.5C 86.1667,21.5 85.8333,21.5 85.5,21.5C 82.3135,20.4031 79.3135,19.0697 76.5,17.5 Z"/></g>
<g><path style="opacity:1" fill="#e6bd33" d="M 36.5,16.5 C 37.8333,16.5 39.1667,16.5 40.5,16.5C 40.4431,17.609 40.1098,18.609 39.5,19.5C 38.391,19.5569 37.391,19.8902 36.5,20.5C 36.0825,19.7784 35.4158,19.2784 34.5,19C 35.3805,18.2917 36.0472,17.4584 36.5,16.5 Z"/></g>
<g><path style="opacity:0.431" fill="#b1daed" d="M 86.5,15.5 C 89.8489,16.1695 92.5156,17.8361 94.5,20.5C 94.5,20.8333 94.5,21.1667 94.5,21.5C 93.8333,21.5 93.1667,21.5 92.5,21.5C 91.8333,20.1667 90.8333,19.1667 89.5,18.5C 88.3065,17.7281 87.3065,16.7281 86.5,15.5 Z"/></g>
<g><path style="opacity:1" fill="#eac546" d="M 36.5,16.5 C 36.0472,17.4584 35.3805,18.2917 34.5,19C 35.4158,19.2784 36.0825,19.7784 36.5,20.5C 35.9653,22.4456 34.632,23.4456 32.5,23.5C 32.7373,22.209 32.404,21.209 31.5,20.5C 31.8333,19.8333 32.1667,19.1667 32.5,18.5C 33.6049,17.3995 34.9382,16.7329 36.5,16.5 Z"/></g>
<g><path style="opacity:1" fill="#56a9d8" d="M 89.5,18.5 C 89.7148,20.1788 89.0481,21.1788 87.5,21.5C 87.1667,21.5 86.8333,21.5 86.5,21.5C 86.1667,20.8333 85.8333,20.1667 85.5,19.5C 86.5676,18.5655 87.901,18.2322 89.5,18.5 Z"/></g>
<g><path style="opacity:1" fill="#6bacd1" d="M 89.5,18.5 C 90.8333,19.1667 91.8333,20.1667 92.5,21.5C 91.1667,21.5 90.5,22.1667 90.5,23.5C 88.9731,23.573 87.9731,22.9063 87.5,21.5C 89.0481,21.1788 89.7148,20.1788 89.5,18.5 Z"/></g>
<g><path style="opacity:0.016" fill="#cae9f7" d="M 94.5,21.5 C 94.5,21.1667 94.5,20.8333 94.5,20.5C 97.5,21.5 99.5,23.5 100.5,26.5C 99.8333,26.1667 99.1667,25.8333 98.5,25.5C 97.5,23.8333 96.1667,22.5 94.5,21.5 Z"/></g>
<g><path style="opacity:1" fill="#e8c136" d="M 31.5,20.5 C 32.404,21.209 32.7373,22.209 32.5,23.5C 32.1667,24.5 31.5,25.1667 30.5,25.5C 30.5,24.1667 29.8333,23.5 28.5,23.5C 29.1667,22.1667 30.1667,21.1667 31.5,20.5 Z"/></g>
<g><path style="opacity:1" fill="#f1d676" d="M 30.5,18.5 C 31.1667,18.5 31.8333,18.5 32.5,18.5C 32.1667,19.1667 31.8333,19.8333 31.5,20.5C 30.1667,21.1667 29.1667,22.1667 28.5,23.5C 27.1667,24.5 25.8333,25.5 24.5,26.5C 24.5,26.1667 24.5,25.8333 24.5,25.5C 26.5,23.1667 28.5,20.8333 30.5,18.5 Z"/></g>
<g><path style="opacity:1" fill="#e8c133" d="M 28.5,23.5 C 29.8333,23.5 30.5,24.1667 30.5,25.5C 30.1667,26.1667 29.8333,26.8333 29.5,27.5C 27.9382,27.7329 26.6049,28.3995 25.5,29.5C 24.6618,29.1583 24.3284,28.4916 24.5,27.5C 24.5,27.1667 24.5,26.8333 24.5,26.5C 25.8333,25.5 27.1667,24.5 28.5,23.5 Z"/></g>
<g><path style="opacity:0.349" fill="#fbe9b2" d="M 39.5,19.5 C 40.1667,19.5 40.8333,19.5 41.5,19.5C 41.5,19.8333 41.5,20.1667 41.5,20.5C 37.2718,22.7107 33.2718,25.3774 29.5,28.5C 29.5,28.1667 29.5,27.8333 29.5,27.5C 29.8333,26.8333 30.1667,26.1667 30.5,25.5C 31.5,25.1667 32.1667,24.5 32.5,23.5C 34.632,23.4456 35.9653,22.4456 36.5,20.5C 37.391,19.8902 38.391,19.5569 39.5,19.5 Z"/></g>
<g><path style="opacity:0.369" fill="#fdf3c6" d="M 30.5,18.5 C 28.5,20.8333 26.5,23.1667 24.5,25.5C 22.8333,26.8333 21.1667,28.1667 19.5,29.5C 22.1667,24.8333 25.8333,21.1667 30.5,18.5 Z"/></g>
<g><path style="opacity:0.082" fill="#d1effa" d="M 85.5,21.5 C 85.8333,21.5 86.1667,21.5 86.5,21.5C 86.8333,21.5 87.1667,21.5 87.5,21.5C 87.9731,22.9063 88.9731,23.573 90.5,23.5C 92.5,26.1667 94.8333,28.5 97.5,30.5C 97.5,31.1667 97.5,31.8333 97.5,32.5C 93.4741,28.8051 89.4741,25.1384 85.5,21.5 Z"/></g>
<g><path style="opacity:1" fill="#67afd5" d="M 92.5,21.5 C 93.1667,21.5 93.8333,21.5 94.5,21.5C 96.1667,22.5 97.5,23.8333 98.5,25.5C 97.5028,25.4701 96.8361,25.9701 96.5,27C 97.0707,28.5991 98.0707,29.7658 99.5,30.5C 99.5,31.1667 99.5,31.8333 99.5,32.5C 98.8333,31.8333 98.1667,31.1667 97.5,30.5C 94.8333,28.5 92.5,26.1667 90.5,23.5C 90.5,22.1667 91.1667,21.5 92.5,21.5 Z"/></g>
<g><path style="opacity:0.902" fill="#f1d77f" d="M 24.5,25.5 C 24.5,25.8333 24.5,26.1667 24.5,26.5C 24.5,26.8333 24.5,27.1667 24.5,27.5C 22.4131,28.5846 21.0798,30.2512 20.5,32.5C 20.1667,32.5 19.8333,32.5 19.5,32.5C 19.5,31.5 19.5,30.5 19.5,29.5C 21.1667,28.1667 22.8333,26.8333 24.5,25.5 Z"/></g>
<g><path style="opacity:0.667" fill="#b1daf0" d="M 100.5,26.5 C 102.89,27.8908 104.557,29.8908 105.5,32.5C 103.846,31.2497 102.179,29.9163 100.5,28.5C 100.5,27.8333 100.5,27.1667 100.5,26.5 Z"/></g>
<g><path style="opacity:1" fill="#5aa9d4" d="M 98.5,25.5 C 99.1667,25.8333 99.8333,26.1667 100.5,26.5C 100.5,27.1667 100.5,27.8333 100.5,28.5C 100.672,29.4916 100.338,30.1583 99.5,30.5C 98.0707,29.7658 97.0707,28.5991 96.5,27C 96.8361,25.9701 97.5028,25.4701 98.5,25.5 Z"/></g>
<g><path style="opacity:1" fill="#e5bf37" d="M 24.5,27.5 C 24.3284,28.4916 24.6618,29.1583 25.5,29.5C 25.4431,30.609 25.1098,31.609 24.5,32.5C 24.1667,32.5 23.8333,32.5 23.5,32.5C 23.631,31.7611 23.4643,31.0944 23,30.5C 22.2917,31.3805 21.4584,32.0472 20.5,32.5C 21.0798,30.2512 22.4131,28.5846 24.5,27.5 Z"/></g>
<g><path style="opacity:0.831" fill="#f0d58c" d="M 29.5,27.5 C 29.5,27.8333 29.5,28.1667 29.5,28.5C 29.5,29.1667 29.1667,29.5 28.5,29.5C 27.6618,29.8417 27.3284,30.5084 27.5,31.5C 26.8333,31.5 26.5,31.8333 26.5,32.5C 25.8333,32.5 25.1667,32.5 24.5,32.5C 25.1098,31.609 25.4431,30.609 25.5,29.5C 26.6049,28.3995 27.9382,27.7329 29.5,27.5 Z"/></g>
<g><path style="opacity:0.394" fill="#d2d5d1" d="M 28.5,29.5 C 31.5,30.1667 34.5,30.8333 37.5,31.5C 36.1667,31.5 34.8333,31.5 33.5,31.5C 31.5,31.5 29.5,31.5 27.5,31.5C 27.3284,30.5084 27.6618,29.8417 28.5,29.5 Z"/></g>
<g><path style="opacity:0.25" fill="#cdd3d7" d="M 73.5,33.5 C 73.1667,33.5 72.8333,33.5 72.5,33.5C 71.8333,33.1667 71.1667,32.8333 70.5,32.5C 67.1667,31.1667 63.8333,31.1667 60.5,32.5C 58.8333,33.8333 57.1667,35.1667 55.5,36.5C 56.2026,34.2843 57.5359,32.451 59.5,31C 63.5,30.3333 67.5,30.3333 71.5,31C 72.3805,31.7083 73.0472,32.5416 73.5,33.5 Z"/></g>
<g><path style="opacity:0.098" fill="#fdf3cd" d="M 19.5,29.5 C 19.5,30.5 19.5,31.5 19.5,32.5C 18.8333,32.8333 18.1667,33.1667 17.5,33.5C 17.2291,31.6203 17.8958,30.287 19.5,29.5 Z"/></g>
<g><path style="opacity:0.016" fill="#e0e3e7" d="M 37.5,31.5 C 39.5,31.5 40.5,32.5 40.5,34.5C 40.1667,34.5 39.8333,34.5 39.5,34.5C 38.8333,33.5 38.1667,32.5 37.5,31.5 Z"/></g>
<g><path style="opacity:0.871" fill="#9ca4aa" d="M 60.5,32.5 C 63.8333,31.1667 67.1667,31.1667 70.5,32.5C 69.1667,33.1667 67.8333,33.8333 66.5,34.5C 65.0821,32.6921 63.0821,32.0254 60.5,32.5 Z"/></g>
<g><path style="opacity:0.58" fill="#bde4f2" d="M 97.5,30.5 C 98.1667,31.1667 98.8333,31.8333 99.5,32.5C 100.596,35.0316 101.929,37.3649 103.5,39.5C 104.455,41.7457 105.122,44.079 105.5,46.5C 104.833,46.1667 104.167,45.8333 103.5,45.5C 101.808,41.1113 99.8084,36.778 97.5,32.5C 97.5,31.8333 97.5,31.1667 97.5,30.5 Z"/></g>
<g><path style="opacity:1" fill="#64aed8" d="M 100.5,28.5 C 102.179,29.9163 103.846,31.2497 105.5,32.5C 105.5,33.8333 105.5,35.1667 105.5,36.5C 104.883,36.3893 104.383,36.056 104,35.5C 103.51,36.7932 103.343,38.1266 103.5,39.5C 101.929,37.3649 100.596,35.0316 99.5,32.5C 99.5,31.8333 99.5,31.1667 99.5,30.5C 100.338,30.1583 100.672,29.4916 100.5,28.5 Z"/></g>
<g><path style="opacity:1" fill="#b4b5b0" d="M 27.5,31.5 C 29.5,31.5 31.5,31.5 33.5,31.5C 33.5,31.8333 33.5,32.1667 33.5,32.5C 32.1667,32.5 30.8333,32.5 29.5,32.5C 29.6567,33.8734 29.49,35.2068 29,36.5C 28.6174,35.944 28.1174,35.6107 27.5,35.5C 27.4431,34.391 27.1098,33.391 26.5,32.5C 26.5,31.8333 26.8333,31.5 27.5,31.5 Z"/></g>
<g><path style="opacity:1" fill="#eac134" d="M 23.5,32.5 C 22.8902,33.391 22.5569,34.391 22.5,35.5C 22.5,36.1667 22.5,36.8333 22.5,37.5C 21.8333,37.5 21.1667,37.5 20.5,37.5C 20.5912,35.3023 19.9245,34.9689 18.5,36.5C 18.8333,35.1667 19.1667,33.8333 19.5,32.5C 19.8333,32.5 20.1667,32.5 20.5,32.5C 21.4584,32.0472 22.2917,31.3805 23,30.5C 23.4643,31.0944 23.631,31.7611 23.5,32.5 Z"/></g>
<g><path style="opacity:0.82" fill="#f3d577" d="M 23.5,32.5 C 23.8333,32.5 24.1667,32.5 24.5,32.5C 24.573,34.0269 23.9063,35.0269 22.5,35.5C 22.5569,34.391 22.8902,33.391 23.5,32.5 Z"/></g>
<g><path style="opacity:0.02" fill="#f5eaca" d="M 24.5,32.5 C 25.1667,32.5 25.8333,32.5 26.5,32.5C 27.1098,33.391 27.4431,34.391 27.5,35.5C 26.8826,35.3893 26.3826,35.056 26,34.5C 24.9609,35.7101 23.7942,36.7101 22.5,37.5C 22.5,36.8333 22.5,36.1667 22.5,35.5C 23.9063,35.0269 24.573,34.0269 24.5,32.5 Z"/></g>
<g><path style="opacity:1" fill="#979ca6" d="M 33.5,32.5 C 33.5,32.1667 33.5,31.8333 33.5,31.5C 34.8333,31.5 36.1667,31.5 37.5,31.5C 38.1667,32.5 38.8333,33.5 39.5,34.5C 38.8333,34.5 38.5,34.8333 38.5,35.5C 37.8333,35.1667 37.1667,34.8333 36.5,34.5C 36.0269,33.0937 35.0269,32.427 33.5,32.5 Z"/></g>
<g><path style="opacity:0.978" fill="#bac2c8" d="M 60.5,32.5 C 63.0821,32.0254 65.0821,32.6921 66.5,34.5C 66.5,35.1667 66.1667,35.5 65.5,35.5C 64.8333,35.1667 64.1667,34.8333 63.5,34.5C 60.5222,35.4777 58.5222,37.4777 57.5,40.5C 55.2632,42.6471 53.2632,44.9804 51.5,47.5C 50.1667,45.5 50.1667,43.5 51.5,41.5C 54.9103,41.6162 56.2436,39.9496 55.5,36.5C 57.1667,35.1667 58.8333,33.8333 60.5,32.5 Z"/></g>
<g><path style="opacity:1" fill="#4c5967" d="M 70.5,32.5 C 71.1667,32.8333 71.8333,33.1667 72.5,33.5C 72.7678,35.099 72.4345,36.4324 71.5,37.5C 71.719,36.325 71.3857,35.325 70.5,34.5C 68.6396,35.2599 66.973,36.2599 65.5,37.5C 65.5,36.8333 65.5,36.1667 65.5,35.5C 66.1667,35.5 66.5,35.1667 66.5,34.5C 67.8333,33.8333 69.1667,33.1667 70.5,32.5 Z"/></g>
<g><path style="opacity:1" fill="#c6cdd4" d="M 33.5,32.5 C 35.0269,32.427 36.0269,33.0937 36.5,34.5C 36.5,35.1667 36.1667,35.5 35.5,35.5C 34.6136,34.2241 33.6136,34.2241 32.5,35.5C 32.8627,36.1835 33.1961,36.8501 33.5,37.5C 33.0825,38.2216 32.4158,38.7216 31.5,39C 32.2524,39.6708 32.5858,40.5041 32.5,41.5C 30.086,40.0892 28.4194,38.0892 27.5,35.5C 28.1174,35.6107 28.6174,35.944 29,36.5C 29.49,35.2068 29.6567,33.8734 29.5,32.5C 30.8333,32.5 32.1667,32.5 33.5,32.5 Z"/></g>
<g><path style="opacity:1" fill="#737e87" d="M 35.5,35.5 C 36.1667,36.5 36.8333,37.5 37.5,38.5C 36.8333,38.5 36.5,38.8333 36.5,39.5C 35.5,38.8333 34.5,38.1667 33.5,37.5C 33.1961,36.8501 32.8627,36.1835 32.5,35.5C 33.6136,34.2241 34.6136,34.2241 35.5,35.5 Z"/></g>
<g><path style="opacity:0.82" fill="#aed8ef" d="M 105.5,32.5 C 107.008,34.1815 108.008,36.1815 108.5,38.5C 108.5,39.1667 108.5,39.8333 108.5,40.5C 108.167,40.5 107.833,40.5 107.5,40.5C 107.34,38.847 106.674,37.5137 105.5,36.5C 105.5,35.1667 105.5,33.8333 105.5,32.5 Z"/></g>
<g><path style="opacity:1" fill="#f0cb64" d="M 19.5,32.5 C 19.1667,33.8333 18.8333,35.1667 18.5,36.5C 17.8902,37.391 17.5569,38.391 17.5,39.5C 17.1667,39.5 16.8333,39.5 16.5,39.5C 16.5172,37.4352 16.8505,35.4352 17.5,33.5C 18.1667,33.1667 18.8333,32.8333 19.5,32.5 Z"/></g>
<g><path style="opacity:1" fill="#abb5be" d="M 36.5,34.5 C 37.1667,34.8333 37.8333,35.1667 38.5,35.5C 40.0862,37.6705 41.4196,40.0038 42.5,42.5C 42.5,42.8333 42.5,43.1667 42.5,43.5C 42.1667,43.5 41.8333,43.5 41.5,43.5C 40.1363,41.8089 38.803,40.1423 37.5,38.5C 36.8333,37.5 36.1667,36.5 35.5,35.5C 36.1667,35.5 36.5,35.1667 36.5,34.5 Z"/></g>
<g><path style="opacity:0.231" fill="#d9dee2" d="M 40.5,34.5 C 42.5869,35.5846 43.9202,37.2512 44.5,39.5C 42.4131,38.4154 41.0798,36.7488 40.5,34.5 Z"/></g>
<g><path style="opacity:1" fill="#747f88" d="M 63.5,34.5 C 62.8333,36.1667 62.1667,37.8333 61.5,39.5C 60.5,40.1667 59.5,40.8333 58.5,41.5C 58.5,40.8333 58.1667,40.5 57.5,40.5C 58.5222,37.4777 60.5222,35.4777 63.5,34.5 Z"/></g>
<g><path style="opacity:1" fill="#314251" d="M 71.5,37.5 C 70.5987,38.2905 69.9321,39.2905 69.5,40.5C 67.8058,41.5274 66.4725,42.8608 65.5,44.5C 65.5,43.8333 65.5,43.1667 65.5,42.5C 65.5,40.8333 65.5,39.1667 65.5,37.5C 66.973,36.2599 68.6396,35.2599 70.5,34.5C 71.3857,35.325 71.719,36.325 71.5,37.5 Z"/></g>
<g><path style="opacity:1" fill="#8d939a" d="M 39.5,34.5 C 39.8333,34.5 40.1667,34.5 40.5,34.5C 41.0798,36.7488 42.4131,38.4154 44.5,39.5C 44.427,41.0269 45.0937,42.0269 46.5,42.5C 47.1667,42.5 47.5,42.8333 47.5,43.5C 47.7214,44.7348 48.3881,45.7348 49.5,46.5C 49.0431,47.2975 48.3764,47.6309 47.5,47.5C 46.1667,45.5 44.5,43.8333 42.5,42.5C 41.4196,40.0038 40.0862,37.6705 38.5,35.5C 38.5,34.8333 38.8333,34.5 39.5,34.5 Z"/></g>
<g><path style="opacity:1" fill="#a6b4c1" d="M 63.5,34.5 C 64.1667,34.8333 64.8333,35.1667 65.5,35.5C 65.5,36.1667 65.5,36.8333 65.5,37.5C 64.1667,38.8333 62.8333,40.1667 61.5,41.5C 61.5,40.8333 61.5,40.1667 61.5,39.5C 62.1667,37.8333 62.8333,36.1667 63.5,34.5 Z"/></g>
<g><path style="opacity:0.506" fill="#abb5bf" d="M 72.5,33.5 C 72.8333,33.5 73.1667,33.5 73.5,33.5C 74.5983,34.6009 74.765,35.9343 74,37.5C 72.264,39.0632 70.764,40.7299 69.5,42.5C 69.5,41.8333 69.5,41.1667 69.5,40.5C 69.9321,39.2905 70.5987,38.2905 71.5,37.5C 72.4345,36.4324 72.7678,35.099 72.5,33.5 Z"/></g>
<g><path style="opacity:1" fill="#eac023" d="M 20.5,37.5 C 20.1667,38.8333 19.8333,40.1667 19.5,41.5C 18.8333,42.5 18.1667,43.5 17.5,44.5C 17.5,42.8333 17.5,41.1667 17.5,39.5C 17.5569,38.391 17.8902,37.391 18.5,36.5C 19.9245,34.9689 20.5912,35.3023 20.5,37.5 Z"/></g>
<g><path style="opacity:1" fill="#c0c5ca" d="M 55.5,36.5 C 56.2436,39.9496 54.9103,41.6162 51.5,41.5C 52.604,39.6115 53.9373,37.9448 55.5,36.5 Z"/></g>
<g><path style="opacity:1" fill="#5baad6" d="M 105.5,36.5 C 106.674,37.5137 107.34,38.847 107.5,40.5C 106.041,40.5674 104.708,40.2341 103.5,39.5C 103.343,38.1266 103.51,36.7932 104,35.5C 104.383,36.056 104.883,36.3893 105.5,36.5 Z"/></g>
<g><path style="opacity:0.565" fill="#fce5ab" d="M 17.5,33.5 C 16.8505,35.4352 16.5172,37.4352 16.5,39.5C 15.6618,39.8417 15.3284,40.5084 15.5,41.5C 15.1667,41.5 14.8333,41.5 14.5,41.5C 14.5,40.8333 14.5,40.1667 14.5,39.5C 14.7549,37.0326 15.7549,35.0326 17.5,33.5 Z"/></g>
<g><path style="opacity:1" fill="#eabd29" d="M 16.5,39.5 C 16.8333,39.5 17.1667,39.5 17.5,39.5C 17.5,41.1667 17.5,42.8333 17.5,44.5C 17.44,45.0431 17.1067,45.3764 16.5,45.5C 15.5713,44.3112 15.238,42.9778 15.5,41.5C 15.3284,40.5084 15.6618,39.8417 16.5,39.5 Z"/></g>
<g><path style="opacity:0.706" fill="#f6de87" d="M 20.5,37.5 C 21.1667,37.5 21.8333,37.5 22.5,37.5C 22.7373,38.791 22.404,39.791 21.5,40.5C 20.8333,40.8333 20.1667,41.1667 19.5,41.5C 19.8333,40.1667 20.1667,38.8333 20.5,37.5 Z"/></g>
<g><path style="opacity:1" fill="#b0b9bc" d="M 33.5,37.5 C 34.5,38.1667 35.5,38.8333 36.5,39.5C 36.5,39.8333 36.5,40.1667 36.5,40.5C 35.5284,42.4931 34.1951,42.8264 32.5,41.5C 32.5858,40.5041 32.2524,39.6708 31.5,39C 32.4158,38.7216 33.0825,38.2216 33.5,37.5 Z"/></g>
<g><path style="opacity:0.404" fill="#d2d7da" d="M 44.5,39.5 C 45.9063,39.9731 46.573,40.9731 46.5,42.5C 45.0937,42.0269 44.427,41.0269 44.5,39.5 Z"/></g>
<g><path style="opacity:1" fill="#435465" d="M 65.5,37.5 C 65.5,39.1667 65.5,40.8333 65.5,42.5C 63.288,41.9531 61.6213,42.9531 60.5,45.5C 60.1667,45.5 59.8333,45.5 59.5,45.5C 59.7329,43.9382 60.3995,42.6049 61.5,41.5C 62.8333,40.1667 64.1667,38.8333 65.5,37.5 Z"/></g>
<g><path style="opacity:1" fill="#65737c" d="M 37.5,38.5 C 38.803,40.1423 40.1363,41.8089 41.5,43.5C 40.8333,43.5 40.5,43.8333 40.5,44.5C 39.1667,43.5 37.8333,42.5 36.5,41.5C 36.5,41.1667 36.5,40.8333 36.5,40.5C 36.5,40.1667 36.5,39.8333 36.5,39.5C 36.5,38.8333 36.8333,38.5 37.5,38.5 Z"/></g>
<g><path style="opacity:0.365" fill="#9ea7b2" d="M 69.5,40.5 C 69.5,41.1667 69.5,41.8333 69.5,42.5C 68.5,44.1667 67.1667,45.5 65.5,46.5C 65.5,46.1667 65.5,45.8333 65.5,45.5C 65.5,45.1667 65.5,44.8333 65.5,44.5C 66.4725,42.8608 67.8058,41.5274 69.5,40.5 Z"/></g>
<g><path style="opacity:0.376" fill="#fbedc4" d="M 14.5,39.5 C 14.5,40.1667 14.5,40.8333 14.5,41.5C 13.3586,43.5487 13.3586,45.5487 14.5,47.5C 13.8333,47.5 13.1667,47.5 12.5,47.5C 11.8761,47.0831 11.5427,46.4164 11.5,45.5C 12.5118,43.4371 13.5118,41.4371 14.5,39.5 Z"/></g>
<g><path style="opacity:1" fill="#cacfcf" d="M 36.5,40.5 C 36.5,40.8333 36.5,41.1667 36.5,41.5C 36.5,43.1667 36.5,44.8333 36.5,46.5C 34.4131,45.4154 33.0798,43.7488 32.5,41.5C 34.1951,42.8264 35.5284,42.4931 36.5,40.5 Z"/></g>
<g><path style="opacity:1" fill="#bac2c9" d="M 36.5,41.5 C 37.8333,42.5 39.1667,43.5 40.5,44.5C 40.5569,45.609 40.8902,46.609 41.5,47.5C 41.1667,48.8333 40.8333,50.1667 40.5,51.5C 38.457,50.4206 37.1237,48.754 36.5,46.5C 36.5,44.8333 36.5,43.1667 36.5,41.5 Z"/></g>
<g><path style="opacity:1" fill="#707b86" d="M 57.5,40.5 C 58.1667,40.5 58.5,40.8333 58.5,41.5C 57.2464,44.0934 55.5798,46.4268 53.5,48.5C 53.9569,49.2975 54.6236,49.6309 55.5,49.5C 54.4995,51.8132 53.1662,53.8132 51.5,55.5C 51.5,56.1667 51.1667,56.5 50.5,56.5C 50.7373,55.209 50.404,54.209 49.5,53.5C 50.4756,52.1851 51.4756,50.8518 52.5,49.5C 52.3764,48.8933 52.0431,48.56 51.5,48.5C 51.5,48.1667 51.5,47.8333 51.5,47.5C 53.2632,44.9804 55.2632,42.6471 57.5,40.5 Z"/></g>
<g><path style="opacity:1" fill="#58a9d2" d="M 103.5,39.5 C 104.708,40.2341 106.041,40.5674 107.5,40.5C 107.833,42.5 108.167,44.5 108.5,46.5C 107.5,46.5 106.5,46.5 105.5,46.5C 105.122,44.079 104.455,41.7457 103.5,39.5 Z"/></g>
<g><path style="opacity:1" fill="#a8b4c0" d="M 42.5,42.5 C 44.5,43.8333 46.1667,45.5 47.5,47.5C 46.6618,47.8417 46.3284,48.5084 46.5,49.5C 44.7819,47.7772 43.4486,45.7772 42.5,43.5C 42.5,43.1667 42.5,42.8333 42.5,42.5 Z"/></g>
<g><path style="opacity:0.959" fill="#a9b4c0" d="M 61.5,39.5 C 61.5,40.1667 61.5,40.8333 61.5,41.5C 60.3995,42.6049 59.7329,43.9382 59.5,45.5C 57.7376,46.2623 56.7376,47.5956 56.5,49.5C 56.1667,49.5 55.8333,49.5 55.5,49.5C 54.6236,49.6309 53.9569,49.2975 53.5,48.5C 55.5798,46.4268 57.2464,44.0934 58.5,41.5C 59.5,40.8333 60.5,40.1667 61.5,39.5 Z"/></g>
<g><path style="opacity:1" fill="#2d3d4e" d="M 65.5,42.5 C 65.5,43.1667 65.5,43.8333 65.5,44.5C 65.5,44.8333 65.5,45.1667 65.5,45.5C 64.8333,45.8333 64.1667,46.1667 63.5,46.5C 62.209,46.7373 61.209,46.404 60.5,45.5C 61.6213,42.9531 63.288,41.9531 65.5,42.5 Z"/></g>
<g><path style="opacity:0.988" fill="#edcb64" d="M 14.5,41.5 C 14.8333,41.5 15.1667,41.5 15.5,41.5C 15.238,42.9778 15.5713,44.3112 16.5,45.5C 17.1067,45.3764 17.44,45.0431 17.5,44.5C 18.1667,43.5 18.8333,42.5 19.5,41.5C 20.5749,45.938 18.9083,47.938 14.5,47.5C 13.3586,45.5487 13.3586,43.5487 14.5,41.5 Z"/></g>
<g><path style="opacity:0.38" fill="#c6e2f3" d="M 108.5,38.5 C 109.791,40.949 110.791,43.6156 111.5,46.5C 111.145,47.5223 110.478,48.189 109.5,48.5C 109.5,48.1667 109.5,47.8333 109.5,47.5C 109.552,45.0971 109.219,42.7638 108.5,40.5C 108.5,39.8333 108.5,39.1667 108.5,38.5 Z"/></g>
<g><path style="opacity:1" fill="#667582" d="M 41.5,43.5 C 41.8333,43.5 42.1667,43.5 42.5,43.5C 43.4486,45.7772 44.7819,47.7772 46.5,49.5C 47.8333,49.5 49.1667,49.5 50.5,49.5C 48.7809,50.0221 47.4475,51.0221 46.5,52.5C 46.1667,52.5 45.8333,52.5 45.5,52.5C 45.1667,51.8333 44.8333,51.1667 44.5,50.5C 43.8333,49.1667 42.8333,48.1667 41.5,47.5C 40.8902,46.609 40.5569,45.609 40.5,44.5C 40.5,43.8333 40.8333,43.5 41.5,43.5 Z"/></g>
<g><path style="opacity:0.467" fill="#bec4ce" d="M 51.5,41.5 C 50.1667,43.5 50.1667,45.5 51.5,47.5C 51.5,47.8333 51.5,48.1667 51.5,48.5C 50.8333,48.5 50.5,48.8333 50.5,49.5C 49.1667,49.5 47.8333,49.5 46.5,49.5C 46.3284,48.5084 46.6618,47.8417 47.5,47.5C 48.3764,47.6309 49.0431,47.2975 49.5,46.5C 48.3881,45.7348 47.7214,44.7348 47.5,43.5C 49.0618,43.2671 50.3951,42.6005 51.5,41.5 Z"/></g>
<g><path style="opacity:0.314" fill="#9aa5ac" d="M 65.5,45.5 C 65.5,45.8333 65.5,46.1667 65.5,46.5C 63.8866,49.1318 62.22,51.7984 60.5,54.5C 61.6302,55.6223 62.2969,56.9557 62.5,58.5C 60.2729,57.5994 59.2729,55.9328 59.5,53.5C 59.5569,52.391 59.8902,51.391 60.5,50.5C 61.4884,49.205 62.4884,47.8717 63.5,46.5C 64.1667,46.1667 64.8333,45.8333 65.5,45.5 Z"/></g>
<g><path style="opacity:0.984" fill="#81b8d9" d="M 107.5,40.5 C 107.833,40.5 108.167,40.5 108.5,40.5C 109.219,42.7638 109.552,45.0971 109.5,47.5C 107.901,47.7678 106.568,47.4345 105.5,46.5C 106.5,46.5 107.5,46.5 108.5,46.5C 108.167,44.5 107.833,42.5 107.5,40.5 Z"/></g>
<g><path style="opacity:0.141" fill="#f9f3cb" d="M 21.5,40.5 C 21.8031,45.1505 19.9697,48.4838 16,50.5C 14.3576,50.0222 13.1909,49.0222 12.5,47.5C 13.1667,47.5 13.8333,47.5 14.5,47.5C 18.9083,47.938 20.5749,45.938 19.5,41.5C 20.1667,41.1667 20.8333,40.8333 21.5,40.5 Z"/></g>
<g><path style="opacity:1" fill="#374a58" d="M 59.5,45.5 C 59.8333,45.5 60.1667,45.5 60.5,45.5C 61.209,46.404 62.209,46.7373 63.5,46.5C 62.4884,47.8717 61.4884,49.205 60.5,50.5C 60.719,49.325 60.3857,48.325 59.5,47.5C 58.4822,48.1925 57.4822,48.8592 56.5,49.5C 56.7376,47.5956 57.7376,46.2623 59.5,45.5 Z"/></g>
<g><path style="opacity:0.524" fill="#c5e4f4" d="M 103.5,45.5 C 104.167,45.8333 104.833,46.1667 105.5,46.5C 106.568,47.4345 107.901,47.7678 109.5,47.5C 109.5,47.8333 109.5,48.1667 109.5,48.5C 106.222,50.1809 104.222,49.1809 103.5,45.5 Z"/></g>
<g><path style="opacity:1" fill="#afb8bd" d="M 41.5,47.5 C 42.8333,48.1667 43.8333,49.1667 44.5,50.5C 43.7611,50.369 43.0944,50.5357 42.5,51C 43.4506,51.7175 43.6172,52.5509 43,53.5C 42.2917,52.6195 41.4584,51.9528 40.5,51.5C 40.8333,50.1667 41.1667,48.8333 41.5,47.5 Z"/></g>
<g><path style="opacity:1" fill="#304152" d="M 60.5,50.5 C 59.8902,51.391 59.5569,52.391 59.5,53.5C 58.8999,54.9002 57.8999,55.9002 56.5,56.5C 55.6618,56.8417 55.3284,57.5084 55.5,58.5C 54.8333,58.5 54.1667,58.5 53.5,58.5C 53.573,56.9731 52.9063,55.9731 51.5,55.5C 53.1662,53.8132 54.4995,51.8132 55.5,49.5C 55.8333,49.5 56.1667,49.5 56.5,49.5C 57.4822,48.8592 58.4822,48.1925 59.5,47.5C 60.3857,48.325 60.719,49.325 60.5,50.5 Z"/></g>
<g><path style="opacity:1" fill="#c5cbd0" d="M 44.5,50.5 C 44.8333,51.1667 45.1667,51.8333 45.5,52.5C 45.1667,53.8333 44.8333,55.1667 44.5,56.5C 42.4131,55.4154 41.0798,53.7488 40.5,51.5C 41.4584,51.9528 42.2917,52.6195 43,53.5C 43.6172,52.5509 43.4506,51.7175 42.5,51C 43.0944,50.5357 43.7611,50.369 44.5,50.5 Z"/></g>
<g><path style="opacity:0.969" fill="#c8ccd6" d="M 88.5,53.5 C 88.1667,53.5 87.8333,53.5 87.5,53.5C 86.5637,52.0256 85.2303,51.0256 83.5,50.5C 82.8643,58.4059 82.1977,65.7392 81.5,72.5C 81.8235,65.9779 81.4902,59.6446 80.5,53.5C 80.1583,52.6618 79.4916,52.3284 78.5,52.5C 78.1667,52.5 77.8333,52.5 77.5,52.5C 78.5511,51.7777 79.2178,50.7777 79.5,49.5C 83.7481,47.7871 86.7481,49.1205 88.5,53.5 Z"/></g>
<g><path style="opacity:1" fill="#4c5766" d="M 51.5,48.5 C 52.0431,48.56 52.3764,48.8933 52.5,49.5C 51.4756,50.8518 50.4756,52.1851 49.5,53.5C 48.8333,53.5 48.1667,53.5 47.5,53.5C 46.8333,53.5 46.5,53.1667 46.5,52.5C 47.4475,51.0221 48.7809,50.0221 50.5,49.5C 50.5,48.8333 50.8333,48.5 51.5,48.5 Z"/></g>
<g><path style="opacity:0.892" fill="#bdc1c7" d="M 79.5,49.5 C 79.2178,50.7777 78.5511,51.7777 77.5,52.5C 76.5,53.1667 75.5,53.8333 74.5,54.5C 74.5,53.8333 74.5,53.1667 74.5,52.5C 75.0483,49.9162 76.715,48.9162 79.5,49.5 Z"/></g>
<g><path style="opacity:1" fill="#b6c1ca" d="M 77.5,52.5 C 77.8333,52.5 78.1667,52.5 78.5,52.5C 77.8333,53.8333 77.1667,55.1667 76.5,56.5C 75.5,56.8333 74.8333,57.5 74.5,58.5C 70.7346,57.5249 70.7346,56.1916 74.5,54.5C 75.5,53.8333 76.5,53.1667 77.5,52.5 Z"/></g>
<g><path style="opacity:1" fill="#3e485a" d="M 83.5,52.5 C 84.4916,52.3284 85.1583,52.6618 85.5,53.5C 84.5269,55.9479 84.1936,58.6146 84.5,61.5C 84.5,63.8333 84.5,66.1667 84.5,68.5C 84.5,70.5 84.5,72.5 84.5,74.5C 84.1667,74.5 83.8333,74.5 83.5,74.5C 83.5,67.1667 83.5,59.8333 83.5,52.5 Z"/></g>
<g><path style="opacity:1" fill="#313d4e" d="M 85.5,53.5 C 86.4511,54.9187 86.7845,56.5853 86.5,58.5C 86.5,59.8333 86.5,61.1667 86.5,62.5C 85.8333,62.1667 85.1667,61.8333 84.5,61.5C 84.1936,58.6146 84.5269,55.9479 85.5,53.5 Z"/></g>
<g><path style="opacity:0.982" fill="#616975" d="M 83.5,50.5 C 85.2303,51.0256 86.5637,52.0256 87.5,53.5C 87.5,55.1667 87.5,56.8333 87.5,58.5C 87.1667,58.5 86.8333,58.5 86.5,58.5C 86.7845,56.5853 86.4511,54.9187 85.5,53.5C 85.1583,52.6618 84.4916,52.3284 83.5,52.5C 83.5,51.8333 83.5,51.1667 83.5,50.5 Z"/></g>
<g><path style="opacity:0.651" fill="#afb8c2" d="M 45.5,52.5 C 45.8333,52.5 46.1667,52.5 46.5,52.5C 46.5,53.1667 46.8333,53.5 47.5,53.5C 46.962,55.1172 46.6287,56.7839 46.5,58.5C 45.5,58.1667 44.8333,57.5 44.5,56.5C 44.8333,55.1667 45.1667,53.8333 45.5,52.5 Z"/></g>
<g><path style="opacity:0.98" fill="#7e8e9a" d="M 47.5,53.5 C 48.1667,53.5 48.8333,53.5 49.5,53.5C 50.404,54.209 50.7373,55.209 50.5,56.5C 48.8212,56.2852 47.8212,56.9519 47.5,58.5C 47.1667,58.5 46.8333,58.5 46.5,58.5C 46.6287,56.7839 46.962,55.1172 47.5,53.5 Z"/></g>
<g><path style="opacity:1" fill="#2f414f" d="M 51.5,55.5 C 52.9063,55.9731 53.573,56.9731 53.5,58.5C 51.8333,58.5 50.1667,58.5 48.5,58.5C 48.1667,58.5 47.8333,58.5 47.5,58.5C 47.8212,56.9519 48.8212,56.2852 50.5,56.5C 51.1667,56.5 51.5,56.1667 51.5,55.5 Z"/></g>
<g><path style="opacity:1" fill="#5e656f" d="M 78.5,52.5 C 79.4916,52.3284 80.1583,52.6618 80.5,53.5C 80.6662,59.5092 80.4995,65.5092 80,71.5C 79.8247,66.9805 79.3247,62.6472 78.5,58.5C 77.8333,58.5 77.1667,58.5 76.5,58.5C 76.5,57.8333 76.5,57.1667 76.5,56.5C 77.1667,55.1667 77.8333,53.8333 78.5,52.5 Z"/></g>
<g><path style="opacity:0.643" fill="#b4bdc4" d="M 109.5,66.5 C 109.5,63.8333 109.5,61.1667 109.5,58.5C 107.517,58.1568 106.183,58.8235 105.5,60.5C 105.5,60.8333 105.5,61.1667 105.5,61.5C 104.076,63.5145 103.41,65.8478 103.5,68.5C 102.662,68.8417 102.328,69.5084 102.5,70.5C 101.833,71.5 101.167,72.5 100.5,73.5C 100.5,72.5 100.5,71.5 100.5,70.5C 101.815,66.9156 102.982,63.2489 104,59.5C 106.892,55.364 109.392,55.5307 111.5,60C 111.198,62.3995 110.532,64.5662 109.5,66.5 Z"/></g>
<g><path style="opacity:1" fill="#3c4c58" d="M 48.5,58.5 C 50.1667,58.5 51.8333,58.5 53.5,58.5C 54.1667,58.5 54.8333,58.5 55.5,58.5C 54.8333,59.1667 54.1667,59.8333 53.5,60.5C 52.5,61.8333 51.5,61.8333 50.5,60.5C 49.8333,59.8333 49.1667,59.1667 48.5,58.5 Z"/></g>
<g><path style="opacity:0.984" fill="#c2c9ce" d="M 74.5,52.5 C 74.5,53.1667 74.5,53.8333 74.5,54.5C 70.7346,56.1916 70.7346,57.5249 74.5,58.5C 73.8333,59.5 73.1667,60.5 72.5,61.5C 71.2502,61.4226 70.4169,60.756 70,59.5C 69.6174,60.056 69.1174,60.3893 68.5,60.5C 69.5293,57.1092 71.5293,54.4426 74.5,52.5 Z"/></g>
<g><path style="opacity:1" fill="#aab3bf" d="M 62.5,62.5 C 61.8333,62.5 61.5,62.8333 61.5,63.5C 60.8333,63.1667 60.1667,62.8333 59.5,62.5C 58.8333,61.5 58.1667,60.5 57.5,59.5C 57.5173,57.9719 58.184,57.4719 59.5,58C 60.3862,59.6147 61.3862,61.1147 62.5,62.5 Z"/></g>
<g><path style="opacity:1" fill="#68737d" d="M 109.5,66.5 C 109.672,67.4916 109.338,68.1583 108.5,68.5C 108.5,67.8333 108.5,67.1667 108.5,66.5C 108.808,64.076 108.474,61.7427 107.5,59.5C 106.817,59.8627 106.15,60.1961 105.5,60.5C 106.183,58.8235 107.517,58.1568 109.5,58.5C 109.5,61.1667 109.5,63.8333 109.5,66.5 Z"/></g>
<g><path style="opacity:1" fill="#6a767f" d="M 76.5,56.5 C 76.5,57.1667 76.5,57.8333 76.5,58.5C 75.8333,60.1667 75.1667,61.8333 74.5,63.5C 74.1667,63.5 73.8333,63.5 73.5,63.5C 73.6716,62.5084 73.3382,61.8417 72.5,61.5C 73.1667,60.5 73.8333,59.5 74.5,58.5C 74.8333,57.5 75.5,56.8333 76.5,56.5 Z"/></g>
<g><path style="opacity:0.667" fill="#969fa6" d="M 47.5,58.5 C 47.8333,58.5 48.1667,58.5 48.5,58.5C 49.1667,59.1667 49.8333,59.8333 50.5,60.5C 50.5,60.8333 50.5,61.1667 50.5,61.5C 50.1667,61.5 49.8333,61.5 49.5,61.5C 48.6981,62.9516 48.1981,64.6183 48,66.5C 47.5026,63.854 47.3359,61.1873 47.5,58.5 Z"/></g>
<g><path style="opacity:1" fill="#687380" d="M 56.5,56.5 C 56.2627,57.791 56.596,58.791 57.5,59.5C 58.1667,60.5 58.8333,61.5 59.5,62.5C 58.8333,62.5 58.5,62.8333 58.5,63.5C 58.1667,63.5 57.8333,63.5 57.5,63.5C 56.7377,61.7376 55.4044,60.7376 53.5,60.5C 54.1667,59.8333 54.8333,59.1667 55.5,58.5C 55.3284,57.5084 55.6618,56.8417 56.5,56.5 Z"/></g>
<g><path style="opacity:1" fill="#828992" d="M 59.5,53.5 C 59.2729,55.9328 60.2729,57.5994 62.5,58.5C 63.3956,61.0692 65.0623,63.0692 67.5,64.5C 67.3764,65.1067 67.0431,65.44 66.5,65.5C 64.5956,65.2624 63.2623,64.2624 62.5,62.5C 61.3862,61.1147 60.3862,59.6147 59.5,58C 58.184,57.4719 57.5173,57.9719 57.5,59.5C 56.596,58.791 56.2627,57.791 56.5,56.5C 57.8999,55.9002 58.8999,54.9002 59.5,53.5 Z"/></g>
<g><path style="opacity:1" fill="#2e3d53" d="M 84.5,61.5 C 85.1667,61.8333 85.8333,62.1667 86.5,62.5C 86.5,64.8333 86.5,67.1667 86.5,69.5C 85.8333,69.1667 85.1667,68.8333 84.5,68.5C 84.5,66.1667 84.5,63.8333 84.5,61.5 Z"/></g>
<g><path style="opacity:1" fill="#4a78b4" d="M 18.5,62.5 C 18.5,62.8333 18.5,63.1667 18.5,63.5C 18.6621,65.5273 18.4955,67.5273 18,69.5C 17.6232,68.0577 16.7899,67.0577 15.5,66.5C 14.9426,64.0509 14.9426,61.7175 15.5,59.5C 16.735,60.3398 17.735,61.3398 18.5,62.5 Z"/></g>
<g><path style="opacity:0.125" fill="#cbd5dd" d="M 53.5,60.5 C 55.4044,60.7376 56.7377,61.7376 57.5,63.5C 57.6716,64.4916 57.3382,65.1583 56.5,65.5C 56.1583,64.6618 55.4916,64.3284 54.5,64.5C 54.1667,64.5 53.8333,64.5 53.5,64.5C 53.5,63.1667 53.5,61.8333 53.5,60.5 Z"/></g>
<g><path style="opacity:0.816" fill="#b8bec6" d="M 62.5,58.5 C 63.8149,59.4756 65.1482,60.4756 66.5,61.5C 67.1835,61.1373 67.8501,60.8039 68.5,60.5C 69.1174,60.3893 69.6174,60.056 70,59.5C 70.4169,60.756 71.2502,61.4226 72.5,61.5C 70.5,64.1667 68.5,66.8333 66.5,69.5C 65.5084,69.6716 64.8417,69.3382 64.5,68.5C 64.7822,67.2223 65.4489,66.2223 66.5,65.5C 67.0431,65.44 67.3764,65.1067 67.5,64.5C 65.0623,63.0692 63.3956,61.0692 62.5,58.5 Z"/></g>
<g><path style="opacity:0.428" fill="#bfc6cd" d="M 76.5,58.5 C 77.1667,58.5 77.8333,58.5 78.5,58.5C 78.5,62.5 78.5,66.5 78.5,70.5C 77.8333,69.8333 77.1667,69.1667 76.5,68.5C 76.5,67.5 76.5,66.5 76.5,65.5C 75.8333,64.8333 75.1667,64.1667 74.5,63.5C 75.1667,61.8333 75.8333,60.1667 76.5,58.5 Z"/></g>
<g><path style="opacity:0.255" fill="#bfd3e8" d="M 13.5,57.5 C 15.099,57.2322 16.4324,57.5655 17.5,58.5C 16.1667,58.5 14.8333,58.5 13.5,58.5C 13.2938,61.4951 13.9605,64.1617 15.5,66.5C 15.5,67.1667 15.5,67.8333 15.5,68.5C 15.5,68.8333 15.5,69.1667 15.5,69.5C 12.6854,65.7885 12.0187,61.7885 13.5,57.5 Z"/></g>
<g><path style="opacity:0.337" fill="#bed6ee" d="M 13.5,57.5 C 15.2232,56.193 17.0565,56.193 19,57.5C 20.4888,64.8029 23.3221,71.4696 27.5,77.5C 27.1667,77.5 26.8333,77.5 26.5,77.5C 22.7939,73.4204 20.1272,68.7537 18.5,63.5C 18.5,63.1667 18.5,62.8333 18.5,62.5C 18.7678,60.901 18.4345,59.5676 17.5,58.5C 16.4324,57.5655 15.099,57.2322 13.5,57.5 Z"/></g>
<g><path style="opacity:1" fill="#6c7585" d="M 59.5,62.5 C 60.1667,62.8333 60.8333,63.1667 61.5,63.5C 61.5569,64.609 61.8902,65.609 62.5,66.5C 61.8333,66.5 61.5,66.8333 61.5,67.5C 60.0256,66.5637 59.0256,65.2303 58.5,63.5C 58.5,62.8333 58.8333,62.5 59.5,62.5 Z"/></g>
<g><path style="opacity:0.941" fill="#afb7bf" d="M 62.5,62.5 C 63.2623,64.2624 64.5956,65.2624 66.5,65.5C 65.4489,66.2223 64.7822,67.2223 64.5,68.5C 63.8333,67.8333 63.1667,67.1667 62.5,66.5C 61.8902,65.609 61.5569,64.609 61.5,63.5C 61.5,62.8333 61.8333,62.5 62.5,62.5 Z"/></g>
<g><path style="opacity:1" fill="#616f7b" d="M 105.5,61.5 C 105.59,64.1522 104.924,66.4855 103.5,68.5C 103.41,65.8478 104.076,63.5145 105.5,61.5 Z"/></g>
<g><path style="opacity:1" fill="#33424f" d="M 108.5,66.5 C 107.341,67.4558 106.174,68.4558 105,69.5C 104.235,69.4301 103.735,69.0967 103.5,68.5C 104.924,66.4855 105.59,64.1522 105.5,61.5C 105.5,61.1667 105.5,60.8333 105.5,60.5C 106.15,60.1961 106.817,59.8627 107.5,59.5C 108.474,61.7427 108.808,64.076 108.5,66.5 Z"/></g>
<g><path style="opacity:0.663" fill="#7e9ec9" d="M 17.5,58.5 C 18.4345,59.5676 18.7678,60.901 18.5,62.5C 17.735,61.3398 16.735,60.3398 15.5,59.5C 14.9426,61.7175 14.9426,64.0509 15.5,66.5C 13.9605,64.1617 13.2938,61.4951 13.5,58.5C 14.8333,58.5 16.1667,58.5 17.5,58.5 Z"/></g>
<g><path style="opacity:0.988" fill="#a2acb8" d="M 57.5,63.5 C 57.8333,63.5 58.1667,63.5 58.5,63.5C 59.0256,65.2303 60.0256,66.5637 61.5,67.5C 62.1098,68.391 62.4431,69.391 62.5,70.5C 61.596,71.209 61.2627,72.209 61.5,73.5C 60.5655,74.5676 60.2322,75.901 60.5,77.5C 59.3064,78.7773 57.6397,79.4439 55.5,79.5C 53.6307,79.4932 51.964,79.1599 50.5,78.5C 53.5,78.5 56.5,78.5 59.5,78.5C 59.8128,74.9581 59.4794,71.6248 58.5,68.5C 57.8333,67.5 57.1667,66.5 56.5,65.5C 57.3382,65.1583 57.6716,64.4916 57.5,63.5 Z"/></g>
<g><path style="opacity:1" fill="#a5b2bb" d="M 73.5,63.5 C 73.8333,63.5 74.1667,63.5 74.5,63.5C 75.1667,64.1667 75.8333,64.8333 76.5,65.5C 74.9731,65.427 73.9731,66.0937 73.5,67.5C 72.075,68.922 71.075,70.5887 70.5,72.5C 70.1667,72.5 69.8333,72.5 69.5,72.5C 69.1583,71.6618 68.4916,71.3284 67.5,71.5C 69.5116,68.795 71.5116,66.1283 73.5,63.5 Z"/></g>
<g><path style="opacity:0.353" fill="#b7bec5" d="M 87.5,53.5 C 87.8333,53.5 88.1667,53.5 88.5,53.5C 88.793,58.997 89.1264,64.497 89.5,70C 88.8719,72.9386 88.2052,75.7719 87.5,78.5C 87.5,71.8333 87.5,65.1667 87.5,58.5C 87.5,56.8333 87.5,55.1667 87.5,53.5 Z"/></g>
<g><path style="opacity:0.995" fill="#737c83" d="M 50.5,60.5 C 51.5,61.8333 52.5,61.8333 53.5,60.5C 53.5,61.8333 53.5,63.1667 53.5,64.5C 54.0356,67.6981 53.369,70.3647 51.5,72.5C 50.5184,69.0381 50.185,65.3714 50.5,61.5C 50.5,61.1667 50.5,60.8333 50.5,60.5 Z"/></g>
<g><path style="opacity:0.204" fill="#c3ced8" d="M 53.5,64.5 C 53.8333,64.5 54.1667,64.5 54.5,64.5C 54.5,67.8333 54.5,71.1667 54.5,74.5C 53.5,74.5 52.5,74.5 51.5,74.5C 51.5,73.8333 51.5,73.1667 51.5,72.5C 53.369,70.3647 54.0356,67.6981 53.5,64.5 Z"/></g>
<g><path style="opacity:0.544" fill="#939ea9" d="M 54.5,64.5 C 55.4916,64.3284 56.1583,64.6618 56.5,65.5C 55.8333,68.5 55.1667,71.5 54.5,74.5C 54.5,71.1667 54.5,67.8333 54.5,64.5 Z"/></g>
<g><path style="opacity:1" fill="#636e7b" d="M 62.5,66.5 C 63.1667,67.1667 63.8333,67.8333 64.5,68.5C 64.8417,69.3382 65.5084,69.6716 66.5,69.5C 65.8333,70.1667 65.1667,70.8333 64.5,71.5C 63.8333,71.1667 63.1667,70.8333 62.5,70.5C 62.4431,69.391 62.1098,68.391 61.5,67.5C 61.5,66.8333 61.8333,66.5 62.5,66.5 Z"/></g>
<g><path style="opacity:1" fill="#616a72" d="M 72.5,61.5 C 73.3382,61.8417 73.6716,62.5084 73.5,63.5C 71.5116,66.1283 69.5116,68.795 67.5,71.5C 66.5,72.8333 65.5,72.8333 64.5,71.5C 65.1667,70.8333 65.8333,70.1667 66.5,69.5C 68.5,66.8333 70.5,64.1667 72.5,61.5 Z"/></g>
<g><path style="opacity:0.959" fill="#7f858e" d="M 80.5,53.5 C 81.4902,59.6446 81.8235,65.9779 81.5,72.5C 79.8212,72.7148 78.8212,72.0481 78.5,70.5C 78.5,66.5 78.5,62.5 78.5,58.5C 79.3247,62.6472 79.8247,66.9805 80,71.5C 80.4995,65.5092 80.6662,59.5092 80.5,53.5 Z"/></g>
<g><path style="opacity:1" fill="#323c4c" d="M 84.5,68.5 C 85.1667,68.8333 85.8333,69.1667 86.5,69.5C 86.5,71.5 86.5,73.5 86.5,75.5C 85.5084,75.6716 84.8417,75.3382 84.5,74.5C 84.5,72.5 84.5,70.5 84.5,68.5 Z"/></g>
<g><path style="opacity:0.895" fill="#5b6572" d="M 86.5,58.5 C 86.8333,58.5 87.1667,58.5 87.5,58.5C 87.5,65.1667 87.5,71.8333 87.5,78.5C 84.2869,78.81 81.2869,78.4767 78.5,77.5C 81.6981,78.0356 84.3647,77.369 86.5,75.5C 86.5,73.5 86.5,71.5 86.5,69.5C 86.5,67.1667 86.5,64.8333 86.5,62.5C 86.5,61.1667 86.5,59.8333 86.5,58.5 Z"/></g>
<g><path style="opacity:1" fill="#4c5a67" d="M 108.5,66.5 C 108.5,67.1667 108.5,67.8333 108.5,68.5C 107.407,70.3492 106.074,72.0158 104.5,73.5C 104.715,71.8212 104.048,70.8212 102.5,70.5C 102.328,69.5084 102.662,68.8417 103.5,68.5C 103.735,69.0967 104.235,69.4301 105,69.5C 106.174,68.4558 107.341,67.4558 108.5,66.5 Z"/></g>
<g><path style="opacity:1" fill="#6c7a88" d="M 76.5,65.5 C 76.5,66.5 76.5,67.5 76.5,68.5C 76.5,70.5 76.5,72.5 76.5,74.5C 78.8333,74.5 81.1667,74.5 83.5,74.5C 81.7078,75.3091 79.7078,75.8091 77.5,76C 78.056,76.3826 78.3893,76.8826 78.5,77.5C 77.8333,77.5 77.1667,77.5 76.5,77.5C 76.5,76.1667 75.8333,75.5 74.5,75.5C 74.5,75.1667 74.5,74.8333 74.5,74.5C 75.1524,73.5514 75.4857,72.3847 75.5,71C 75.3917,69.3189 74.7251,68.1522 73.5,67.5C 73.9731,66.0937 74.9731,65.427 76.5,65.5 Z"/></g>
<g><path style="opacity:0.361" fill="#a7c2e0" d="M 15.5,68.5 C 18.1535,72.4632 20.8202,76.4632 23.5,80.5C 23.5,80.8333 23.5,81.1667 23.5,81.5C 23.1667,81.5 22.8333,81.5 22.5,81.5C 19.1611,78.1651 16.8278,74.1651 15.5,69.5C 15.5,69.1667 15.5,68.8333 15.5,68.5 Z"/></g>
<g><path style="opacity:0.961" fill="#505e6d" d="M 56.5,65.5 C 57.1667,66.5 57.8333,67.5 58.5,68.5C 57.1667,70.8333 55.8333,73.1667 54.5,75.5C 54.5,75.1667 54.5,74.8333 54.5,74.5C 55.1667,71.5 55.8333,68.5 56.5,65.5 Z"/></g>
<g><path style="opacity:1" fill="#314051" d="M 58.5,68.5 C 58.5,71.5 58.5,74.5 58.5,77.5C 55.6122,78.0102 53.2789,77.3435 51.5,75.5C 52.5,75.5 53.5,75.5 54.5,75.5C 55.8333,73.1667 57.1667,70.8333 58.5,68.5 Z"/></g>
<g><path style="opacity:1" fill="#384555" d="M 74.5,74.5 C 74.5,74.8333 74.5,75.1667 74.5,75.5C 73.8333,75.8333 73.1667,76.1667 72.5,76.5C 72.719,75.325 72.3857,74.325 71.5,73.5C 70.4822,74.1925 69.4822,74.8592 68.5,75.5C 68.5,75.1667 68.5,74.8333 68.5,74.5C 68.8333,73.8333 69.1667,73.1667 69.5,72.5C 69.8333,72.5 70.1667,72.5 70.5,72.5C 71.7942,71.7101 72.9609,70.7101 74,69.5C 74.4935,71.1341 74.6602,72.8008 74.5,74.5 Z"/></g>
<g><path style="opacity:1" fill="#415260" d="M 73.5,67.5 C 74.7251,68.1522 75.3917,69.3189 75.5,71C 75.4857,72.3847 75.1524,73.5514 74.5,74.5C 74.6602,72.8008 74.4935,71.1341 74,69.5C 72.9609,70.7101 71.7942,71.7101 70.5,72.5C 71.075,70.5887 72.075,68.922 73.5,67.5 Z"/></g>
<g><path style="opacity:0.216" fill="#b4bec5" d="M 108.5,68.5 C 108.206,71.7541 106.873,74.4208 104.5,76.5C 104.5,75.8333 104.5,75.1667 104.5,74.5C 104.5,74.1667 104.5,73.8333 104.5,73.5C 106.074,72.0158 107.407,70.3492 108.5,68.5 Z"/></g>
<g><path style="opacity:1" fill="#5482b4" d="M 18.5,63.5 C 20.1272,68.7537 22.7939,73.4204 26.5,77.5C 26.5,78.5 26.5,79.5 26.5,80.5C 25.5,80.5 24.5,80.5 23.5,80.5C 20.8202,76.4632 18.1535,72.4632 15.5,68.5C 15.5,67.8333 15.5,67.1667 15.5,66.5C 16.7899,67.0577 17.6232,68.0577 18,69.5C 18.4955,67.5273 18.6621,65.5273 18.5,63.5 Z"/></g>
<g><path style="opacity:1" fill="#b8c2cd" d="M 62.5,70.5 C 63.1667,70.8333 63.8333,71.1667 64.5,71.5C 65.5,72.8333 66.5,72.8333 67.5,71.5C 68.4916,71.3284 69.1583,71.6618 69.5,72.5C 69.1667,73.1667 68.8333,73.8333 68.5,74.5C 66.8333,74.5 65.1667,74.5 63.5,74.5C 63.1583,73.6618 62.4916,73.3284 61.5,73.5C 61.2627,72.209 61.596,71.209 62.5,70.5 Z"/></g>
<g><path style="opacity:1" fill="#354450" d="M 102.5,70.5 C 104.048,70.8212 104.715,71.8212 104.5,73.5C 104.5,73.8333 104.5,74.1667 104.5,74.5C 103.094,74.9731 102.427,75.9731 102.5,77.5C 102.167,77.5 101.833,77.5 101.5,77.5C 101.5,76.1667 100.833,75.5 99.5,75.5C 99.3284,74.5084 99.6618,73.8417 100.5,73.5C 101.167,72.5 101.833,71.5 102.5,70.5 Z"/></g>
<g><path style="opacity:0.439" fill="#c2c9d0" d="M 49.5,61.5 C 49.8333,61.5 50.1667,61.5 50.5,61.5C 50.185,65.3714 50.5184,69.0381 51.5,72.5C 51.5,73.1667 51.5,73.8333 51.5,74.5C 50.8333,74.5 50.1667,74.5 49.5,74.5C 49.5,70.1667 49.5,65.8333 49.5,61.5 Z"/></g>
<g><path style="opacity:0.504" fill="#aeb9c8" d="M 83.5,50.5 C 83.5,51.1667 83.5,51.8333 83.5,52.5C 83.5,59.8333 83.5,67.1667 83.5,74.5C 81.1667,74.5 78.8333,74.5 76.5,74.5C 76.5,72.5 76.5,70.5 76.5,68.5C 77.1667,69.1667 77.8333,69.8333 78.5,70.5C 78.8212,72.0481 79.8212,72.7148 81.5,72.5C 82.1977,65.7392 82.8643,58.4059 83.5,50.5 Z"/></g>
<g><path style="opacity:0.341" fill="#bec7d2" d="M 100.5,70.5 C 100.5,71.5 100.5,72.5 100.5,73.5C 99.6618,73.8417 99.3284,74.5084 99.5,75.5C 98.1667,76.1667 97.1667,77.1667 96.5,78.5C 96.1667,78.5 95.8333,78.5 95.5,78.5C 97.1698,75.8252 98.8365,73.1586 100.5,70.5 Z"/></g>
<g><path style="opacity:0.647" fill="#818a99" d="M 49.5,74.5 C 50.1667,74.5 50.8333,74.5 51.5,74.5C 52.5,74.5 53.5,74.5 54.5,74.5C 54.5,74.8333 54.5,75.1667 54.5,75.5C 53.5,75.5 52.5,75.5 51.5,75.5C 50.5084,75.3284 49.8417,75.6618 49.5,76.5C 48.1667,75.8333 48.1667,75.1667 49.5,74.5 Z"/></g>
<g><path style="opacity:0.78" fill="#c0c7cc" d="M 61.5,73.5 C 62.4916,73.3284 63.1583,73.6618 63.5,74.5C 63.5569,75.609 63.8902,76.609 64.5,77.5C 63.0357,76.5946 61.7024,76.5946 60.5,77.5C 60.2322,75.901 60.5655,74.5676 61.5,73.5 Z"/></g>
<g><path style="opacity:0.447" fill="#b9bdc4" d="M 46.5,58.5 C 46.8333,58.5 47.1667,58.5 47.5,58.5C 47.3359,61.1873 47.5026,63.854 48,66.5C 48.1981,64.6183 48.6981,62.9516 49.5,61.5C 49.5,65.8333 49.5,70.1667 49.5,74.5C 48.1667,75.1667 48.1667,75.8333 49.5,76.5C 49.8333,77.1667 50.1667,77.8333 50.5,78.5C 48.5891,78.4257 47.4224,77.4257 47,75.5C 46.5006,69.8431 46.3339,64.1764 46.5,58.5 Z"/></g>
<g><path style="opacity:1" fill="#394555" d="M 72.5,76.5 C 72.0296,77.6935 71.0296,78.3601 69.5,78.5C 67.6814,78.6578 66.3481,77.9911 65.5,76.5C 66.325,75.6143 67.325,75.281 68.5,75.5C 67.325,75.281 66.325,75.6143 65.5,76.5C 66.3481,77.9911 67.6814,78.6578 69.5,78.5C 71.0296,78.3601 72.0296,77.6935 72.5,76.5 Z"/></g>
<g><path style="opacity:1" fill="#304153" d="M 83.5,74.5 C 83.8333,74.5 84.1667,74.5 84.5,74.5C 84.8417,75.3382 85.5084,75.6716 86.5,75.5C 84.3647,77.369 81.6981,78.0356 78.5,77.5C 78.3893,76.8826 78.056,76.3826 77.5,76C 79.7078,75.8091 81.7078,75.3091 83.5,74.5 Z"/></g>
<g><path style="opacity:0.796" fill="#69777f" d="M 104.5,74.5 C 104.5,75.1667 104.5,75.8333 104.5,76.5C 103.833,76.8333 103.167,77.1667 102.5,77.5C 102.427,75.9731 103.094,74.9731 104.5,74.5 Z"/></g>
<g><path style="opacity:0.939" fill="#535d6b" d="M 58.5,68.5 C 59.4794,71.6248 59.8128,74.9581 59.5,78.5C 56.5,78.5 53.5,78.5 50.5,78.5C 50.1667,77.8333 49.8333,77.1667 49.5,76.5C 49.8417,75.6618 50.5084,75.3284 51.5,75.5C 53.2789,77.3435 55.6122,78.0102 58.5,77.5C 58.5,74.5 58.5,71.5 58.5,68.5 Z"/></g>
<g><path style="opacity:1" fill="#334053" d="M 99.5,75.5 C 100.833,75.5 101.5,76.1667 101.5,77.5C 101.573,79.0269 100.906,80.0269 99.5,80.5C 98.6236,80.6309 97.9569,80.2975 97.5,79.5C 98.6302,78.3777 99.2969,77.0443 99.5,75.5 Z"/></g>
<g><path style="opacity:0.576" fill="#bcd4f0" d="M 27.5,77.5 C 29.1911,78.8637 30.8577,80.197 32.5,81.5C 32.5,82.1667 32.5,82.8333 32.5,83.5C 32.1667,83.5 31.8333,83.5 31.5,83.5C 29.7484,81.7541 28.4151,79.7541 27.5,77.5 Z"/></g>
<g><path style="opacity:0.467" fill="#9da5af" d="M 63.5,74.5 C 65.1667,74.5 66.8333,74.5 68.5,74.5C 68.5,74.8333 68.5,75.1667 68.5,75.5C 67.325,75.281 66.325,75.6143 65.5,76.5C 66.3481,77.9911 67.6814,78.6578 69.5,78.5C 71.0296,78.3601 72.0296,77.6935 72.5,76.5C 73.1667,76.1667 73.8333,75.8333 74.5,75.5C 75.8333,75.5 76.5,76.1667 76.5,77.5C 73.0993,79.3844 69.4326,79.8844 65.5,79C 64.944,78.6174 64.6107,78.1174 64.5,77.5C 63.8902,76.609 63.5569,75.609 63.5,74.5 Z"/></g>
<g><path style="opacity:0.525" fill="#a0a6b0" d="M 76.5,77.5 C 77.1667,77.5 77.8333,77.5 78.5,77.5C 81.2869,78.4767 84.2869,78.81 87.5,78.5C 84.3601,79.6408 81.0267,79.8075 77.5,79C 76.944,78.6174 76.6107,78.1174 76.5,77.5 Z"/></g>
<g><path style="opacity:1" fill="#5a86b7" d="M 26.5,77.5 C 26.8333,77.5 27.1667,77.5 27.5,77.5C 28.4151,79.7541 29.7484,81.7541 31.5,83.5C 31.2178,84.7777 30.5511,85.7777 29.5,86.5C 27.5,84.8333 25.5,83.1667 23.5,81.5C 23.5,81.1667 23.5,80.8333 23.5,80.5C 24.5,80.5 25.5,80.5 26.5,80.5C 26.5,79.5 26.5,78.5 26.5,77.5 Z"/></g>
<g><path style="opacity:0.231" fill="#a3aeb7" d="M 104.5,76.5 C 102.906,79.7642 100.573,82.4309 97.5,84.5C 97.7329,82.9382 98.3995,81.6049 99.5,80.5C 100.906,80.0269 101.573,79.0269 101.5,77.5C 101.833,77.5 102.167,77.5 102.5,77.5C 103.167,77.1667 103.833,76.8333 104.5,76.5 Z"/></g>
<g><path style="opacity:0.408" fill="#b7d1e8" d="M 22.5,81.5 C 22.8333,81.5 23.1667,81.5 23.5,81.5C 25.5,83.1667 27.5,84.8333 29.5,86.5C 29.5,86.8333 29.5,87.1667 29.5,87.5C 26.5726,86.2427 24.2393,84.2427 22.5,81.5 Z"/></g>
<g><path style="opacity:1" fill="#394b57" d="M 99.5,75.5 C 99.2969,77.0443 98.6302,78.3777 97.5,79.5C 97.9569,80.2975 98.6236,80.6309 99.5,80.5C 98.3995,81.6049 97.7329,82.9382 97.5,84.5C 96.391,84.5569 95.391,84.8902 94.5,85.5C 92.0065,85.8693 91.3398,85.2027 92.5,83.5C 93.8333,81.8333 95.1667,80.1667 96.5,78.5C 97.1667,77.1667 98.1667,76.1667 99.5,75.5 Z"/></g>
<g><path style="opacity:1" fill="#5b86b6" d="M 31.5,83.5 C 31.8333,83.5 32.1667,83.5 32.5,83.5C 33.8717,84.5116 35.205,85.5116 36.5,86.5C 36.719,87.675 36.3857,88.675 35.5,89.5C 34.3777,88.3698 33.0443,87.7031 31.5,87.5C 30.8333,87.5 30.1667,87.5 29.5,87.5C 29.5,87.1667 29.5,86.8333 29.5,86.5C 30.5511,85.7777 31.2178,84.7777 31.5,83.5 Z"/></g>
<g><path style="opacity:0.439" fill="#a1aab2" d="M 95.5,78.5 C 95.8333,78.5 96.1667,78.5 96.5,78.5C 95.1667,80.1667 93.8333,81.8333 92.5,83.5C 90.5956,83.7376 89.2623,84.7376 88.5,86.5C 86.5659,87.1103 84.8993,88.1103 83.5,89.5C 83.1667,89.5 82.8333,89.5 82.5,89.5C 82.1667,89.5 81.8333,89.5 81.5,89.5C 81.5,89.1667 81.5,88.8333 81.5,88.5C 86.4216,85.5869 91.0883,82.2536 95.5,78.5 Z"/></g>
<g><path style="opacity:1" fill="#3e4f5c" d="M 92.5,83.5 C 91.3398,85.2027 92.0065,85.8693 94.5,85.5C 94.0269,86.9063 93.0269,87.573 91.5,87.5C 90.791,86.596 89.791,86.2627 88.5,86.5C 89.2623,84.7376 90.5956,83.7376 92.5,83.5 Z"/></g>
<g><path style="opacity:0.075" fill="#d0e5f5" d="M 32.5,81.5 C 35.8708,83.8458 39.2041,86.1792 42.5,88.5C 41.8333,88.5 41.1667,88.5 40.5,88.5C 39.3951,87.3995 38.0618,86.7329 36.5,86.5C 35.205,85.5116 33.8717,84.5116 32.5,83.5C 32.5,82.8333 32.5,82.1667 32.5,81.5 Z"/></g>
<g><path style="opacity:1" fill="#3a4756" d="M 88.5,86.5 C 89.791,86.2627 90.791,86.596 91.5,87.5C 90.0158,89.0737 88.3492,90.407 86.5,91.5C 86.1667,91.5 85.8333,91.5 85.5,91.5C 85.5,90.1667 84.8333,89.5 83.5,89.5C 84.8993,88.1103 86.5659,87.1103 88.5,86.5 Z"/></g>
<g><path style="opacity:0.427" fill="#b1cbe4" d="M 29.5,87.5 C 30.1667,87.5 30.8333,87.5 31.5,87.5C 32.1667,88.5 32.8333,89.5 33.5,90.5C 31.5956,90.2624 30.2623,89.2624 29.5,87.5 Z"/></g>
<g><path style="opacity:1" fill="#688fba" d="M 36.5,86.5 C 38.0618,86.7329 39.3951,87.3995 40.5,88.5C 40.5,88.8333 40.5,89.1667 40.5,89.5C 39.325,89.281 38.325,89.6143 37.5,90.5C 38.6016,91.1757 39.6016,91.8423 40.5,92.5C 39.1667,92.5 37.8333,92.5 36.5,92.5C 36.0269,91.0937 35.0269,90.427 33.5,90.5C 32.8333,89.5 32.1667,88.5 31.5,87.5C 33.0443,87.7031 34.3777,88.3698 35.5,89.5C 36.3857,88.675 36.719,87.675 36.5,86.5 Z"/></g>
<g><path style="opacity:0.325" fill="#a7b2bc" d="M 97.5,84.5 C 94.7276,88.3871 91.0609,91.0538 86.5,92.5C 86.5,92.1667 86.5,91.8333 86.5,91.5C 88.3492,90.407 90.0158,89.0737 91.5,87.5C 93.0269,87.573 94.0269,86.9063 94.5,85.5C 95.391,84.8902 96.391,84.5569 97.5,84.5 Z"/></g>
<g><path style="opacity:0.275" fill="#b7cfe9" d="M 40.5,89.5 C 40.5,89.1667 40.5,88.8333 40.5,88.5C 41.1667,88.5 41.8333,88.5 42.5,88.5C 46.6972,89.5418 50.6972,90.8751 54.5,92.5C 53.1667,92.5 51.8333,92.5 50.5,92.5C 49.5,92.5 48.5,92.5 47.5,92.5C 45.351,91.2638 43.0177,90.2638 40.5,89.5 Z"/></g>
<g><path style="opacity:1" fill="#2f3b4c" d="M 82.5,89.5 C 82.8333,89.5 83.1667,89.5 83.5,89.5C 84.8333,89.5 85.5,90.1667 85.5,91.5C 84.391,91.5569 83.391,91.8902 82.5,92.5C 81.448,92.6495 80.448,92.4828 79.5,92C 80.9423,91.6232 81.9423,90.7899 82.5,89.5 Z"/></g>
<g><path style="opacity:0.133" fill="#c2daf1" d="M 33.5,90.5 C 35.0269,90.427 36.0269,91.0937 36.5,92.5C 34.9731,92.573 33.9731,91.9063 33.5,90.5 Z"/></g>
<g><path style="opacity:1" fill="#5480b2" d="M 40.5,89.5 C 43.0177,90.2638 45.351,91.2638 47.5,92.5C 45.8212,92.2852 44.8212,92.9519 44.5,94.5C 42.847,94.3404 41.5137,93.6737 40.5,92.5C 39.6016,91.8423 38.6016,91.1757 37.5,90.5C 38.325,89.6143 39.325,89.281 40.5,89.5 Z"/></g>
<g><path style="opacity:0.431" fill="#b0b9c3" d="M 81.5,88.5 C 81.5,88.8333 81.5,89.1667 81.5,89.5C 79.0128,90.3228 76.6794,91.3228 74.5,92.5C 73.1667,92.5 71.8333,92.5 70.5,92.5C 69.8333,92.5 69.1667,92.5 68.5,92.5C 72.7333,91.2026 77.0666,89.8693 81.5,88.5 Z"/></g>
<g><path style="opacity:0.792" fill="#aac7e4" d="M 36.5,92.5 C 37.8333,92.5 39.1667,92.5 40.5,92.5C 41.5137,93.6737 42.847,94.3404 44.5,94.5C 45.391,95.1098 46.391,95.4431 47.5,95.5C 47.5,95.8333 47.5,96.1667 47.5,96.5C 43.467,95.9751 39.8004,94.6418 36.5,92.5 Z"/></g>
<g><path style="opacity:1" fill="#4d7fb3" d="M 47.5,92.5 C 48.5,92.5 49.5,92.5 50.5,92.5C 50.5,92.8333 50.5,93.1667 50.5,93.5C 49.1266,93.3433 47.7932,93.51 46.5,94C 47.7375,94.2321 48.7375,94.7321 49.5,95.5C 48.8333,95.5 48.1667,95.5 47.5,95.5C 46.391,95.4431 45.391,95.1098 44.5,94.5C 44.8212,92.9519 45.8212,92.2852 47.5,92.5 Z"/></g>
<g><path style="opacity:1" fill="#404e5e" d="M 81.5,89.5 C 81.8333,89.5 82.1667,89.5 82.5,89.5C 81.9423,90.7899 80.9423,91.6232 79.5,92C 80.448,92.4828 81.448,92.6495 82.5,92.5C 82.5,92.8333 82.5,93.1667 82.5,93.5C 81.1667,93.8333 79.8333,94.1667 78.5,94.5C 77.8166,92.8235 76.4832,92.1568 74.5,92.5C 76.6794,91.3228 79.0128,90.3228 81.5,89.5 Z"/></g>
<g><path style="opacity:0.553" fill="#858d95" d="M 85.5,91.5 C 85.8333,91.5 86.1667,91.5 86.5,91.5C 86.5,91.8333 86.5,92.1667 86.5,92.5C 86.1583,93.3382 85.4916,93.6716 84.5,93.5C 83.8333,93.5 83.1667,93.5 82.5,93.5C 82.5,93.1667 82.5,92.8333 82.5,92.5C 83.391,91.8902 84.391,91.5569 85.5,91.5 Z"/></g>
<g><path style="opacity:1" fill="#4578ae" d="M 50.5,93.5 C 51.675,93.281 52.675,93.6143 53.5,94.5C 52.3112,95.4287 50.9778,95.762 49.5,95.5C 48.7375,94.7321 47.7375,94.2321 46.5,94C 47.7932,93.51 49.1266,93.3433 50.5,93.5 Z"/></g>
<g><path style="opacity:0.796" fill="#9098a0" d="M 68.5,92.5 C 69.1667,92.5 69.8333,92.5 70.5,92.5C 69.791,93.404 68.791,93.7373 67.5,93.5C 67.5,94.5 67.5,95.5 67.5,96.5C 68.8333,96.5 70.1667,96.5 71.5,96.5C 71.5,96.8333 71.5,97.1667 71.5,97.5C 67.1693,99.6005 65.3359,98.2672 66,93.5C 66.6708,92.7476 67.5041,92.4142 68.5,92.5 Z"/></g>
<g><path style="opacity:1" fill="#374759" d="M 70.5,92.5 C 71.8333,92.5 73.1667,92.5 74.5,92.5C 76.4832,92.1568 77.8166,92.8235 78.5,94.5C 76.412,95.9395 74.0786,96.6061 71.5,96.5C 70.1667,96.5 68.8333,96.5 67.5,96.5C 67.5,95.5 67.5,94.5 67.5,93.5C 68.791,93.7373 69.791,93.404 70.5,92.5 Z"/></g>
<g><path style="opacity:0.945" fill="#688eb7" d="M 50.5,93.5 C 50.5,93.1667 50.5,92.8333 50.5,92.5C 51.8333,92.5 53.1667,92.5 54.5,92.5C 54.5,93.8333 54.5,95.1667 54.5,96.5C 52.1667,96.5 49.8333,96.5 47.5,96.5C 47.5,96.1667 47.5,95.8333 47.5,95.5C 48.1667,95.5 48.8333,95.5 49.5,95.5C 50.9778,95.762 52.3112,95.4287 53.5,94.5C 52.675,93.6143 51.675,93.281 50.5,93.5 Z"/></g>
<g><path style="opacity:0.463" fill="#b1c9e0" d="M 54.5,92.5 C 57.1239,94.1978 57.1239,96.0312 54.5,98C 52.0051,98.0683 49.6718,97.5683 47.5,96.5C 49.8333,96.5 52.1667,96.5 54.5,96.5C 54.5,95.1667 54.5,93.8333 54.5,92.5 Z"/></g>
<g><path style="opacity:0.035" fill="#b3bdc7" d="M 82.5,93.5 C 83.1667,93.5 83.8333,93.5 84.5,93.5C 80.6222,96.0129 76.2888,97.3462 71.5,97.5C 71.5,97.1667 71.5,96.8333 71.5,96.5C 74.0786,96.6061 76.412,95.9395 78.5,94.5C 79.8333,94.1667 81.1667,93.8333 82.5,93.5 Z"/></g>
</svg>
